<?xml version="1.0" standalone="no"?>
<!DOCTYPE svg PUBLIC "-//W3C//DTD SVG 1.1//EN" "http://www.w3.org/Graphics/SVG/1.1/DTD/svg11.dtd" >
<svg xmlns="http://www.w3.org/2000/svg">
<metadata></metadata>
<defs>
<font id="bellotabold_italic" horiz-adv-x="1318" >
<font-face units-per-em="2048" ascent="1638" descent="-410" />
<missing-glyph horiz-adv-x="555" />
<glyph unicode="&#xfb01;" horiz-adv-x="1003" d="M-53 -530l231 1460q29 175 94 292t158 171q77 45 182 45q174 0 269 -129l-162 -133q-21 41 -51 65q-28 25 -80 25q-59 0 -101 -33q-37 -27 -65 -86q-36 -77 -57 -209h409q32 7 33 2q-10 -102 -115 -766q3 -20 6 -24q6 -11 19 -11q23 0 59 43l139 -98q-109 -121 -223 -121 q-92 0 -145 60q-43 50 -43 112q0 11 4 39l94 592h-264l-207 -1296h-184z" />
<glyph unicode="&#xfb02;" horiz-adv-x="1419" d="M-53 -530l243 1540q28 176 93.5 294t154.5 171q77 45 180 45q82 0 140 -21t98 -61q64 -64 64 -172q0 -24 -7 -68q-28 -188 -174 -297q-134 -98 -336 -98h-61l-39 -252h303l-26 -172h-304l-145 -909h-184zM371 975h61q258 0 293 221q4 32 4 41q0 47 -24 74q-34 37 -99 37 t-106 -35q-42 -34 -66 -86q-37 -75 -57 -211zM893 158q0 23 2 35l205 1294h184l-205 -1294q0 -16 6 -25q10 -10 25 -10q13 0 29 16l24 25l140 -95q-108 -120 -226 -120q-85 0 -141 59q-43 46 -43 115z" />
<glyph horiz-adv-x="2048" />
<glyph horiz-adv-x="2048" />
<glyph unicode="&#xd;" horiz-adv-x="2048" />
<glyph unicode=" "  horiz-adv-x="555" />
<glyph unicode="&#x09;" horiz-adv-x="555" />
<glyph unicode="&#xa0;" horiz-adv-x="555" />
<glyph unicode="!" horiz-adv-x="376" d="M-29 45q0 58 46 101.5t104 43.5q46 0 77 -31t31 -75q0 -58 -45.5 -102.5t-103.5 -44.5q-47 0 -78 31t-31 77zM47 311l158 1131h229l-203 -1131h-184z" />
<glyph unicode="&#x22;" horiz-adv-x="706" d="M174 973l51 465h221l-96 -465h-176zM502 973l51 465h221l-96 -465h-176z" />
<glyph unicode="#" horiz-adv-x="1210" d="M10 360l27 168h233l49 312h-233l27 168h233l47 297h187l-48 -297h271l47 297h186l-47 -297h234l-27 -168h-233l-50 -312h234l-27 -168h-233l-47 -299h-183l48 299h-275l-47 -299h-182l47 299h-238zM457 528h270l49 312h-270z" />
<glyph unicode="$" horiz-adv-x="1099" d="M-43 147l129 148q159 -105 301 -133l76 475q-154 49 -225 135q-62 74 -62 186q0 34 6 72q21 133 142 225q114 85 254 105l26 176h191l-27 -176q213 -30 385 -164l-131 -149q-156 107 -285 131l-63 -410q178 -56 262 -131q82 -82 82 -207q0 -32 -6 -70q-24 -166 -162 -268 q-60 -43 -111 -65.5t-84.5 -29t-105.5 -13.5l-21 -125h-190l20 123q-229 18 -401 165zM377 989q0 -48 24 -78q33 -44 93 -75l55 346q-64 -12 -109 -49q-50 -38 -59 -107q-4 -24 -4 -37zM578 158q208 24 235 202q4 24 4 35q0 96 -102 150l-72 30z" />
<glyph unicode="%" horiz-adv-x="1499" d="M135 1071q0 39 4 62q21 133 127 229q104 94 238 94q141 0 213 -100q55 -76 55 -174q0 -42 -4 -62q-21 -136 -129 -227q-39 -35 -68.5 -55.5t-60 -29t-51 -10t-62.5 -1.5q-70 0 -123 26q-56 27 -86 74q-53 70 -53 174zM307 0l684 1343h195l-682 -1343h-197zM307 1087 q0 -37 17 -63q37 -61 102 -61t115 53q31 34 40.5 56t14.5 61q2 12 2 32q0 43 -16 64q-43 61 -105 61q-101 0 -147 -108q-14 -29 -21 -62q-2 -12 -2 -33zM774 256q0 38 4 61q21 133 127 228q101 94 238 94q140 0 213 -98q55 -76 55 -176q0 -42 -4 -62q-21 -134 -129 -225 q-39 -35 -68.5 -55.5t-60 -29t-51 -10t-62.5 -1.5q-70 0 -123 26q-56 27 -86 74q-53 70 -53 174zM946 268q0 -37 15 -61q41 -62 104 -62q64 0 115 54q22 24 33.5 46t15 37.5t8.5 49.5q6 49 -25 94q-30 47 -82 47q-49 0 -77 -14q-32 -16 -49 -39q-47 -50 -56 -117 q-2 -12 -2 -35z" />
<glyph unicode="&#x26;" horiz-adv-x="1292" d="M29 297q0 40 4 63q16 103 88 209q69 97 178 158q-51 79 -51 178q0 42 4 62q25 158 160 250q122 81 274 81q116 0 193 -61q78 -61 102 -150l-154 -110q-20 62 -57 104q-21 23 -47.5 33t-71.5 10q-81 0 -127 -32q-67 -46 -67 -150q0 -58 31.5 -112t101.5 -121 q13 -13 67 -66l236 -246q76 119 100 267l15 96h180l-19 -115q-29 -197 -157 -366l164 -170l-142 -129l-157 159q-95 -79 -214.5 -118t-244.5 -39q-196 0 -299 94q-90 81 -90 221zM219 328q0 -31 8 -58q11 -35 43 -67q56 -53 166 -53q85 0 172 26t154 78l-172 178 q-90 93 -182 170q-68 -29 -125 -98q-49 -61 -62 -142q-2 -12 -2 -34z" />
<glyph unicode="'" horiz-adv-x="385" d="M162 973l51 465h221l-96 -465h-176z" />
<glyph unicode="(" horiz-adv-x="747" d="M31 430q0 69 14 172q46 298 242 553q190 248 481 393l63 -143q-228 -120 -391 -340q-164 -222 -202 -463q-11 -83 -11 -135q0 -164 66 -324q98 -227 285 -340l-109 -143q-243 136 -358 391q-80 180 -80 379z" />
<glyph unicode=")" horiz-adv-x="747" d="M-86 -197q227 115 391 340q167 222 205 459q10 78 10 137q0 169 -65 326q-24 55 -45.5 96.5t-45.5 74t-41.5 53t-47.5 43.5t-48 35.5t-59 37.5l111 143q240 -144 356 -393q80 -180 80 -379q0 -63 -15 -174q-46 -297 -241 -551q-191 -248 -479 -391z" />
<glyph unicode="*" horiz-adv-x="763" d="M119 1126l90 189l186 -78l25 221h198l-49 -223l215 80l29 -189l-205 -55l105 -151l-183 -115l-88 178l-145 -182l-139 119l149 153z" />
<glyph unicode="+" horiz-adv-x="874" d="M6 514l29 176h323l52 328h186l-51 -328h323l-28 -176h-324l-51 -330h-186l51 330h-324z" />
<glyph unicode="," horiz-adv-x="382" d="M-92 -135q74 65 94 115q2 5 12 51l9 80q6 44 43 71q30 27 75 27q42 0 68 -29q26 -26 20 -74l-8 -40q-15 -108 -63 -181q-53 -71 -154 -135z" />
<glyph unicode="-" horiz-adv-x="882" d="M90 532l29 189h680l-29 -189h-680z" />
<glyph unicode="." horiz-adv-x="411" d="M-8 55q0 55 44 97.5t101 42.5q47 0 78 -30t31 -73q0 -57 -44.5 -99t-101.5 -42q-47 0 -77.5 29.5t-30.5 74.5z" />
<glyph unicode="/" horiz-adv-x="690" d="M-113 -178l744 1751h203l-742 -1751h-205z" />
<glyph unicode="0" horiz-adv-x="1366" d="M96 524q0 67 13 150q41 274 223 471q92 98 209 153q134 62 264 62q138 0 246 -62q100 -54 161 -153q88 -143 88 -334q0 -78 -10 -137q-47 -290 -223 -484q-193 -215 -455 -215q-145 0 -266 66q-105 54 -166 152q-84 137 -84 331zM297 543q0 -134 47 -224 q82 -163 272 -163q197 0 326 163q51 64 91 154.5t57 188.5q8 49 8 112q0 82 -18.5 154t-55 129.5t-96 91t-135.5 33.5q-120 0 -195.5 -39.5t-144.5 -126.5q-115 -143 -146 -348q-10 -72 -10 -125z" />
<glyph unicode="1" horiz-adv-x="772" d="M195 1159q172 0 391 137q47 28 125 74h63l-217 -1370h-197l172 1079q-146 -88 -321 -88z" />
<glyph unicode="2" horiz-adv-x="1138" d="M-10 0l10 59q35 207 244 381q89 77 192 142q113 69 193 125q95 68 151 127q62 65 74 143q4 36 4 51q0 79 -43 119q-56 53 -158 53t-170 -35q-71 -34 -127 -114l-34 -52q-26 -39 -35 -51l-148 78l82 123q78 111 201 164q119 49 231 49q110 0 187 -23q72 -21 125 -71 q80 -77 80 -211q0 -33 -7 -84q-28 -177 -200 -318q-68 -60 -164 -120l-174 -113q-91 -59 -156 -113q-67 -53 -115 -131h750l-29 -178h-964z" />
<glyph unicode="3" horiz-adv-x="1193" d="M33 133l108 156q60 -37 106 -60.5t116.5 -46t132.5 -22.5q65 0 122 8q61 8 123 33q123 54 146 190q4 28 4 41q0 93 -64 154q-73 67 -196 67h-260l28 178h258q36 0 78.5 14.5t83 41.5t67.5 73t27 101q0 65 -59 100q-53 33 -139 33q-87 0 -156.5 -26t-171.5 -85l-70 154 q161 83 208 101q91 34 204 34q180 0 285.5 -66t105.5 -204q0 -42 -4 -62q-13 -90 -62.5 -156.5t-140.5 -119.5q183 -112 183 -303q0 -33 -6 -70q-18 -106 -74 -191t-144 -134q-82 -48 -186 -66q-105 -18 -201 -18q-121 0 -226 38.5t-226 112.5z" />
<glyph unicode="4" horiz-adv-x="1093" d="M8 246l23 137l581 969h215l-557 -928h418l70 432h198l-69 -432h172l-29 -178h-172l-39 -250h-198l38 250h-651z" />
<glyph unicode="5" horiz-adv-x="1024" d="M4 147l76 175q115 -105 227 -150q43 -16 94 -16q70 0 138 23t118 63q108 87 134 239q4 40 4 58q0 111 -90 161q-82 45 -250 45q-74 0 -165.5 -17.5t-158.5 -41.5l102 637q541 6 758 16l-28 -180q-383 -10 -422 -8h-140l-36 -238q97 11 159 11q94 0 189 -27 q96 -29 159 -84q115 -97 115 -266q0 -35 -6 -76q-17 -104 -76 -201q-53 -90 -139 -159q-165 -131 -369 -131q-174 0 -321 106q-44 29 -72 61z" />
<glyph unicode="6" horiz-adv-x="1128" d="M43 420q0 49 10 117q26 169 123 331q86 147 230 267q143 116 309 176q169 61 350 61l-33 -172q-78 0 -131.5 -4.5t-99.5 -19t-68 -24t-76 -36.5q-169 -84 -297 -270q77 41 139 59.5t138 18.5q102 0 192 -37q91 -39 146 -99q106 -115 106 -272q0 -34 -6 -72 q-17 -101 -71.5 -189.5t-135.5 -152.5q-82 -65 -181 -99t-198 -34q-110 0 -203 42.5t-153 121.5q-90 116 -90 287zM236 393q0 -105 73 -172q85 -82 215 -82q128 0 238 86q135 109 135 267q0 105 -61 176q-68 84 -209 84q-75 0 -140 -25q-59 -22 -112 -65 q-139 -112 -139 -269z" />
<glyph unicode="7" horiz-adv-x="1007" d="M162 1151l28 176l928 10l-8 -55l-737 -1282h-209l674 1157q-185 -6 -676 -6z" />
<glyph unicode="8" horiz-adv-x="1157" d="M57 313q0 33 6 74q20 115 95 209q76 92 178 160q-103 80 -103 200q0 200 175 318q134 90 299 90q167 0 280 -90q90 -72 90 -215q0 -22 -6 -64q-8 -59 -58 -130t-136 -124q180 -109 180 -292q0 -30 -6 -68q-31 -196 -199 -309q-151 -103 -360 -103q-207 0 -328 103 q-107 91 -107 241zM260 346q0 -45 10 -70q12 -46 52 -75q69 -60 196 -60q98 0 175.5 34t119.5 101q29 50 41 115q4 24 4 37q0 41 -24 84q-29 45 -89 78q-21 12 -48.5 24t-58.5 22t-51.5 16t-49 14t-29.5 8q-103 -73 -150 -117q-98 -98 -98 -211zM434 985q0 -44 30 -75 t99 -52q79 -28 135 -43q114 68 156 131q17 31 23 66q2 10 2 26q0 28 -9 49q-17 39 -41 58q-51 43 -122 43q-119 0 -183 -43q-90 -59 -90 -160z" />
<glyph unicode="9" horiz-adv-x="1126" d="M98 803q0 37 6 78q15 99 68.5 188t136.5 154q169 133 375 133q111 0 205 -42.5t155 -121.5q89 -121 89 -293q0 -55 -9 -113q-26 -167 -112 -319q-90 -153 -221 -266q-138 -119 -295 -183q-160 -65 -338 -65h-45l30 170q118 0 207.5 20t179.5 72q79 46 160 119.5 t141 163.5q-89 -53 -155.5 -76t-136.5 -23q-109 0 -193 37q-85 35 -145 99q-103 106 -103 268zM279 829q0 -100 63 -172q79 -86 225 -86q157 0 267 97q112 103 112 245q0 61 -26 115q-28 52 -72 90q-40 32 -86 49q-59 17 -111 17q-54 0 -121 -23q-49 -18 -114 -63 q-63 -48 -100 -117t-37 -152z" />
<glyph unicode=":" horiz-adv-x="399" d="M-8 76q0 55 44 97t101 42q47 0 78 -29.5t31 -72.5q0 -57 -44.5 -99.5t-101.5 -42.5q-47 0 -77.5 30t-30.5 75zM-8 854q0 55 44 97t101 42q47 0 78 -29.5t31 -72.5q0 -57 -44.5 -99t-101.5 -42q-47 0 -77.5 29.5t-30.5 74.5z" />
<glyph unicode=";" horiz-adv-x="366" d="M-92 -135q74 65 94 115q2 5 12 51l9 80q6 44 43 71q30 27 75 27q42 0 68 -29q26 -26 20 -74l-8 -40q-15 -108 -63 -181q-53 -71 -154 -135zM-8 854q0 55 44 97t101 42q47 0 78 -29.5t31 -72.5q0 -57 -44.5 -99t-101.5 -42q-47 0 -77.5 29.5t-30.5 74.5z" />
<glyph unicode="&#x3c;" horiz-adv-x="786" d="M-23 543l687 430l79 -156l-430 -270l346 -275l-135 -157z" />
<glyph unicode="=" horiz-adv-x="929" d="M59 348l29 178h793l-29 -178h-793zM113 676l26 178h793l-27 -178h-792z" />
<glyph unicode="&#x3e;" horiz-adv-x="786" d="M23 270l430 269l-349 274l136 158l548 -428l-684 -428z" />
<glyph unicode="?" horiz-adv-x="937" d="M133 1122q0 21 2 33q11 74 62 127q47 52 112 88q130 70 275 70q89 0 167 -30.5t132 -84.5q94 -97 94 -242q0 -33 -6 -67q-19 -118 -96 -216.5t-209 -166.5l-129 -66q-68 -39 -101 -69q-43 -40 -51 -88q-4 -29 -2 -109l-180 -35q-4 36 -4 64q0 40 6 84q13 82 59 143 q40 52 107 98q37 26 131 74q79 41 127 72q70 43 106 88q60 71 60 172q0 33 -11 61q-12 48 -49 80q-66 66 -184 66q-52 0 -113 -21q-47 -15 -86 -41q-14 -10 -20.5 -15.5t-11.5 -15t-5 -22.5q0 -41 64 -41l16 -123q-50 -18 -98 -18q-73 0 -118.5 40.5t-45.5 110.5zM176 45 q0 58 46 101.5t104 43.5q46 0 77 -31t31 -75q0 -58 -45.5 -102.5t-103.5 -44.5q-47 0 -78 31t-31 77z" />
<glyph unicode="@" horiz-adv-x="1429" d="M45 365q0 59 8 114q49 293 252 467q200 176 498 176q279 0 430 -157q127 -133 127 -334q0 -50 -8 -94q-24 -166 -127 -269q-106 -106 -256 -106q-142 0 -187 92q-87 -66 -180 -66q-74 0 -131 31q-48 28 -78 76q-41 66 -41 166q0 43 4 63q10 69 45.5 129.5t85.5 102.5 q48 41 111 66.5t127 25.5l133 -10h127l-67 -432q0 -3 -1.5 -8.5t-1.5 -8.5q0 -29 23 -49q26 -23 61 -23q68 0 119 74q39 57 53 150q7 40 7 67q0 52 -15 101q-20 81 -73 137q-113 119 -308 119q-221 0 -366 -136q-68 -62 -114.5 -150t-63.5 -187q-7 -54 -7 -89 q0 -156 78 -249q53 -65 135.5 -90t196.5 -25q223 0 424 84l27 -154q-134 -39 -244 -63q-123 -27 -246 -27q-138 0 -244 39q-110 41 -186 117q-127 130 -127 330zM526 477q0 -73 39 -106q19 -17 58 -17q43 0 65 16t51 58l11 21l36 229q-50 4 -75 4q-77 0 -121 -41 q-28 -24 -46 -68.5t-18 -95.5z" />
<glyph unicode="A" horiz-adv-x="1640" d="M-18 199l186 34q5 -27 8 -36q6 -21 25 -21q20 0 30 17l744 1212h86l416 -1405h-211l-123 442h-555l-193 -323q-43 -65 -98 -92q-56 -33 -131 -33q-83 0 -133 59q-51 60 -51 146zM692 621h400l-127 450z" />
<glyph unicode="B" horiz-adv-x="1331" d="M131 1151q18 110 98 190q79 82 191 82h454q186 0 302 -96q98 -81 98 -207q0 -35 -12 -104q-11 -73 -62 -145t-135 -117q92 -54 135 -148q33 -62 33 -143q0 -33 -6 -70q-16 -106 -72 -184q-49 -67 -133 -129q-141 -98 -432 -98q-106 0 -248 10l-137 12l196 1241 q-69 0 -84 -94h-186zM426 162q120 -6 205 -6q103 0 162 12q60 12 112 41q109 63 131 194q4 28 4 41q0 90 -73 148q-79 61 -201 61h-127l27 174h112q174 0 254 117q32 43 41 98q2 12 2 37q0 70 -45 115q-54 51 -153 51h-279z" />
<glyph unicode="C" horiz-adv-x="1560" d="M102 573q0 55 9 113q28 165 110 299q79 135 203 244q124 106 272 166q147 59 308 59q180 0 309 -74q141 -82 141 -217q0 -112 -88 -190q-73 -62 -164 -62q-81 0 -155 66l135 135q2 0 20 -12q4 -2 10.5 -8.5t14.5 -6.5q19 0 28 13q10 10 15 35q1 6 1 11q0 65 -108 103 q-91 31 -196 31q-114 0 -226 -47q-113 -47 -206 -127q-99 -86 -158 -186q-67 -112 -82 -230q-8 -44 -8 -92q0 -72 18 -127q23 -92 90 -178q25 -33 55.5 -59t57 -43t60.5 -28.5t57 -17.5t57 -9t48.5 -3.5t43.5 0.5t31 0q109 0 243.5 65t237.5 187l135 -100 q-135 -153 -307 -240q-173 -86 -362 -86q-155 0 -287 55q-124 52 -215 154q-86 99 -125 231q-23 87 -23 176z" />
<glyph unicode="D" horiz-adv-x="1677" d="M129 1141q16 109 94 190q37 38 75.5 57.5t61 22t60.5 2.5h612q303 -3 463 -207q121 -157 121 -377q0 -52 -10 -124q-25 -154 -101 -293t-192 -238q-120 -102 -279 -147t-377 -45q-111 0 -262 6.5t-190 19.5l194 1227h-12q-35 0 -53 -35q-19 -32 -19 -59h-186zM426 164 q96 -8 299 -8q302 0 473 145q78 68 135 171t78 228q8 49 8 105q0 170 -86 280q-116 150 -350 150h-387z" />
<glyph unicode="E" horiz-adv-x="1357" d="M127 1128q15 110 96 191q82 82 193 82h981l-29 -178h-793l-63 -396h547l-27 -178h-547l-75 -469h792l-28 -180h-990l195 1223q-35 -7 -49 -37q-17 -38 -17 -58h-186z" />
<glyph unicode="F" horiz-adv-x="1230" d="M127 1126q15 110 96 191q82 82 193 82h981l-29 -178h-793l-63 -396h547l-29 -178h-547l-102 -647h-197l195 1221q-33 -5 -49 -37q-17 -34 -17 -58h-186z" />
<glyph unicode="G" horiz-adv-x="1570" d="M98 553q0 57 8 106q27 165 109 302q37 66 94.5 133.5t110.5 113.5q125 109 268 168q149 62 313 62q172 0 302 -74q74 -43 108 -100q31 -56 31 -111q0 -117 -88 -195q-71 -61 -164 -61q-84 0 -154 64l135 137l19 -15q15 -12 27 -12q14 0 26 12q8 8 14 33q1 4 1 9 q0 26 -26 53q-29 31 -85 51q-85 31 -189 31q-114 0 -227 -48q-112 -48 -205 -129q-90 -77 -152.5 -186t-82.5 -231q-8 -44 -8 -97q0 -177 104 -305q62 -77 157 -122.5t208 -45.5q128 0 249 64q84 44 136 103.5t90 139.5q13 28 20 58l31 188h188l-155 -983q-14 -90 -92 -155 q-78 -64 -164 -64q-76 0 -119 35q-42 34 -74 90l172 104l17 -26q14 -17 30 -17q35 0 41 33l66 420q-203 -164 -463 -164q-147 0 -276 60q-124 59 -209 161q-86 107 -119 234q-23 94 -23 176z" />
<glyph unicode="H" horiz-adv-x="1478" d="M152 1288q51 57 104 90q50 33 113 33q54 0 94 -16q31 -12 67 -45q48 -51 48 -117q0 -7 -5 -37l-59 -379h684l92 584h197l-223 -1401h-197l102 637h-684l-102 -637h-199l191 1196q2 10 -6 18q-6 9 -19 9q-19 0 -49 -41z" />
<glyph unicode="I" horiz-adv-x="430" d="M29 0l223 1401h197l-224 -1401h-196z" />
<glyph unicode="J" horiz-adv-x="964" d="M16 309q0 44 9 97q9 -3 36 -3h127q-4 -36 -4 -55q0 -84 47 -137q44 -53 160 -53q111 0 174 69q64 70 78 174l127 801q-38 -10 -82 -10q-77 0 -184 43q-61 25 -88 25q-75 0 -187 -56l-47 144q101 84 260 84q9 0 17.5 -0.5t16 -1t13 -1t12.5 -2.5t10.5 -2.5t11 -3 l10.5 -3.5t12 -4.5t12 -4.5q74 -30 92 -35q33 -10 80 -10q46 0 92 49h164l-162 -1016q-27 -184 -153 -295q-129 -114 -322 -114q-194 0 -270 110q-62 84 -62 211z" />
<glyph unicode="K" horiz-adv-x="1347" d="M31 2l221 1399h197l-97 -608q87 0 129 10q68 15 133 76q79 71 209 254q49 69 178 268h238q-79 -100 -156 -211q-81 -120 -139 -195q-18 -25 -127 -161q-66 -79 -131 -129l307 -527q10 -14 27 -14q36 0 45 67h188q-14 -100 -86 -172q-73 -73 -178 -73q-114 0 -166 88 l-321 551q-69 -17 -148 -17h-28l-95 -606h-200z" />
<glyph unicode="L" horiz-adv-x="1079" d="M29 0l223 1401h197l-195 -1221h670l-29 -180h-866z" />
<glyph unicode="M" horiz-adv-x="2117" d="M-27 145l181 66q11 -47 34 -47q24 0 29 16l459 1221h174l250 -1106l606 1106h170l78 -1401h-189l-55 1063l-573 -1063h-170l-234 1059l-336 -907q-19 -52 -61 -93t-98 -59q-36 -12 -76 -12q-77 0 -123 43q-50 46 -66 114z" />
<glyph unicode="N" horiz-adv-x="1634" d="M-18 188q0 16 4 48h186l-2 -13q-2 -8 -2 -18q0 -11 2 -17q0 -18 33 -18q27 0 33 29l190 1202h129q26 -36 100 -127q61 -80 142 -191q5 -7 227 -315q164 -234 270 -377l154 1008h194l-223 -1399h-90l-770 1069l-129 -868q-15 -88 -96 -148q-80 -59 -168 -59 q-101 0 -148 74q-36 50 -36 120z" />
<glyph unicode="O" horiz-adv-x="1687" d="M98 561q0 43 11 115l6 39q21 146 106 289q73 123 199 229q122 104 264 158q146 55 297 55q155 0 281 -57q122 -55 213 -156q92 -103 129 -232q22 -86 22 -174q0 -60 -8 -112l-6 -39q-9 -53 -17 -87t-30.5 -89.5t-57.5 -110.5q-76 -127 -202 -231q-123 -102 -258 -154 q-146 -57 -304 -57q-147 0 -274 57q-129 58 -215 156q-92 106 -129 231q-27 79 -27 170zM287 584q0 -168 112 -301q64 -76 162 -119t209 -43q116 0 228 43.5t198 116.5q93 80 152 183.5t77 211.5l7 39q6 43 6 84q0 65 -19 133q-24 94 -94 176q-64 77 -159.5 119.5 t-213.5 42.5q-113 0 -223 -43q-103 -41 -199 -119q-195 -168 -229 -393l-6 -39q-8 -62 -8 -92z" />
<glyph unicode="P" horiz-adv-x="1277" d="M127 1128q15 110 96 191q82 82 193 82h471q194 0 293 -123q75 -93 75 -227q0 -26 -8 -88q-30 -199 -184 -332q-147 -129 -352 -129q-62 0 -111 14q2 10 15.5 73t19.5 105q69 -16 123 -16q117 0 200 86q101 101 101 254q0 87 -45 137q-62 68 -185 68h-233l-195 -1223h-196 l194 1223h-8q-39 0 -55 -31q-23 -38 -23 -64h-186z" />
<glyph unicode="Q" horiz-adv-x="1642" d="M102 573q0 48 11 123q24 149 97.5 284.5t188.5 236.5q236 204 557 204q160 0 287 -54t205 -150q131 -158 131 -394q0 -57 -10 -129q-25 -162 -105 -303q-77 -135 -201 -236t-266 -147q-125 -41 -254 -41q-37 0 -55 2l-100 -114l164 -56q74 -22 151 -22q93 0 232 86 l61 -148q-104 -63 -168.5 -85.5t-159.5 -22.5q-53 0 -91.5 7t-104.5 26q-93 26 -213 69l-113 -129l-129 107l281 313q-223 65 -324 260q-72 141 -72 313zM301 582q0 -172 90 -287q58 -72 152.5 -113t216.5 -41q240 0 409 156q77 71 131 171t72 218q8 52 8 111q0 177 -82 293 q-109 155 -348 155q-130 0 -248 -43q-103 -39 -186 -115q-78 -70 -132.5 -171.5t-74.5 -223.5q-8 -49 -8 -110z" />
<glyph unicode="R" horiz-adv-x="1505" d="M127 1128q15 110 96 191q82 82 193 82h483q185 0 285 -127q73 -94 73 -232q0 -38 -6 -79q-24 -146 -118 -250q-104 -113 -244 -140l24 -32l25 -37l215 -332q6 -12 27 -12q25 0 34 22q5 18 9 45l188 -6q-19 -105 -86 -170q-69 -69 -172 -69q-115 0 -170 88l-209 319 q-26 45 -72 96t-81 54l28 176h111q113 0 196 65q105 84 105 238q0 134 -103 184q-43 21 -96 21h-270l-195 -1223h-196l194 1223q-67 0 -82 -95h-186z" />
<glyph unicode="S" horiz-adv-x="1189" d="M23 332l182 65q14 -55 45 -106q26 -51 69 -88q40 -37 97 -58q53 -20 119 -20q59 0 114 18q59 18 109 56q51 35 82 84q36 47 45 110q2 14 2 41q0 29 -4 43q-8 32 -29 62t-49 49q-26 18 -68 39l-90 45q-5 3 -22.5 11t-61.5 30q-55 25 -84 45q-42 23 -80 61q-63 63 -88 121 q-20 41 -20 100q0 36 4 56q12 83 61 147q40 59 109 109q61 44 141 69t152 25q62 0 119 -14q60 -15 108 -50q49 -34 74 -82q16 -33 16 -81q0 -25 -2 -37q-9 -50 -33 -88q-28 -41 -63 -64q-39 -28 -82 -39q-46 -12 -86 -12q-13 0 -25 4q-5 2 -10.5 2.5t-7.5 1.5l43 174l20 -6 q6 -2 21 -2q12 0 24 6q12 4 15 23v8q0 20 -12 35q-20 18 -43 26q-28 12 -56 15q-32 4 -49 4q-31 0 -76 -10q-42 -11 -80 -33q-29 -16 -61 -56q-28 -35 -33 -75q-2 -10 -2 -29q0 -35 17 -55q19 -31 57 -62q45 -39 86 -57l96 -49l139 -74q73 -43 117 -88q50 -56 72 -119 q14 -51 14 -96q0 -31 -6 -74q-15 -101 -70 -182q-58 -81 -133 -137q-83 -62 -172 -92q-91 -31 -190 -31q-94 0 -168 26q-75 27 -141 80q-61 52 -105 121q-42 67 -67 154z" />
<glyph unicode="T" horiz-adv-x="1314" d="M154 1157q15 101 84 170q71 74 170 74h987l-29 -178h-489l-195 -1223h-197l195 1223h-295q-40 0 -43 -66h-188z" />
<glyph unicode="U" horiz-adv-x="1576" d="M154 1292q113 127 239 127q94 0 152 -63q49 -49 49 -127q0 -23 -2 -35l-103 -637q-6 -43 -6 -82q0 -131 62 -209q84 -108 268 -108t303 108q123 111 148 291l135 846h196l-135 -846q-41 -262 -229 -418q-187 -155 -445 -155q-261 0 -397 155q-104 118 -104 310 q0 59 8 108l102 637v10q0 31 -33 31q-21 0 -36 -18l-27 -29z" />
<glyph unicode="V" horiz-adv-x="1445" d="M143 1225q37 83 105 135q65 53 147 53q126 0 176 -115q9 -23 11 -32l184 -955l541 1092h198l-702 -1403h-172l-238 1212q0 19 -22 19t-35 -19q-15 -27 -19 -36z" />
<glyph unicode="W" horiz-adv-x="2347" d="M145 1235q39 83 101 133q64 53 145 53q76 0 129 -39q54 -39 66 -106l174 -963l538 1090h175l196 -1090l539 1090h198l-702 -1403h-174l-197 1077l-538 -1077h-174l-226 1219q-3 22 -26 22q-21 0 -33 -20l-19 -35z" />
<glyph unicode="X" horiz-adv-x="1437" d="M16 0l566 717l-349 684h228l268 -533l434 533h232l-561 -684l249 -539q7 -10 17 -10q35 0 53 63l188 -10q-24 -89 -65 -138t-105 -75q-57 -22 -106 -22q-69 0 -117 45q-35 32 -74 112l-188 420l-440 -563h-230z" />
<glyph unicode="Y" horiz-adv-x="1355" d="M139 1194q25 98 92 162q71 65 170 65q130 0 179 -110l206 -492l435 584h225l-594 -795l-92 -608h-209l104 604l-258 619q-6 16 -28 16q-20 0 -29 -22l-14 -41z" />
<glyph unicode="Z" horiz-adv-x="1277" d="M-12 45l925 1178h-612l27 172h929l-913 -1162q87 -18 162 -40q99 -29 146.5 -39.5t95.5 -10.5q82 0 141 33q62 35 117 82l110 -119q-110 -91 -204 -128.5t-193 -37.5q-70 0 -178 23q-43 9 -152 43q-104 33 -162 45l-100 -125z" />
<glyph unicode="[" horiz-adv-x="675" d="M-51 -354l299 1890h559l-29 -182h-362l-242 -1526h363l-29 -182h-559z" />
<glyph unicode="\" horiz-adv-x="690" d="M158 1536h200l203 -1677h-205z" />
<glyph unicode="]" horiz-adv-x="677" d="M-135 -354l29 182h362l242 1526h-363l29 182h559l-299 -1890h-559z" />
<glyph unicode="^" horiz-adv-x="919" d="M51 735l479 561h78l299 -561l-176 -112l-213 387l-328 -383z" />
<glyph unicode="_" horiz-adv-x="1175" d="M-43 -307l29 184h972l-28 -184h-973z" />
<glyph unicode="`" horiz-adv-x="491" d="M139 1417l144 162l327 -299l-100 -127z" />
<glyph unicode="a" d="M82 397q0 58 8 105q37 234 201 385q164 153 414 153q69 0 155 -6q64 -12 144 -12l26 2h74l-133 -838v-8q0 -10 6 -16q10 -10 22 -10q18 0 33 18q16 21 25 27l135 -99q-98 -116 -217 -116q-60 0 -111 28q-49 28 -67 82q-128 -110 -316 -110q-220 0 -327 155 q-72 109 -72 260zM272 438q0 -104 37 -176q57 -115 199 -115q111 0 201 66q92 68 110 180l74 467q-203 14 -246 14q-65 0 -129 -28q-61 -27 -112 -78q-45 -45 -80.5 -113t-46.5 -143q-7 -44 -7 -74z" />
<glyph unicode="b" horiz-adv-x="1142" d="M37 29l229 1458h185l-82 -516q128 90 284 90q222 0 328 -160q70 -109 70 -266q0 -51 -9 -107q-18 -119 -71 -220.5t-127 -170.5q-165 -155 -443 -155q-85 0 -190 12.5t-174 34.5zM242 164q123 -14 209 -14q94 0 161 28q67 27 117 80q99 99 123 260q8 44 8 92 q0 88 -35 160q-62 121 -200 121q-128 0 -228 -92q-64 -61 -73 -125z" />
<glyph unicode="c" horiz-adv-x="1118" d="M80 381q0 50 10 115q36 239 191 391q80 78 178.5 120t202.5 42q79 0 150 -24t118 -67q82 -76 82 -204q0 -41 -4 -64h-189q4 32 4 45q0 69 -41 107q-45 45 -145 45q-84 0 -145 -37q-62 -41 -105 -96q-90 -117 -113 -265q-6 -44 -6 -81q0 -99 47 -164q67 -88 220 -88 q91 0 180 30q82 29 170 72l69 -135q-236 -135 -462 -135q-227 0 -336 141q-76 100 -76 252z" />
<glyph unicode="d" d="M84 406q0 59 8 108q40 236 199 389q167 158 422 158q95 0 209 -12l71 440h185l-207 -1299q0 -2 -1 -4.5t-1 -3.5q0 -8 8 -16q10 -10 20 -10q19 0 35 16l25 29l135 -99q-97 -120 -221 -120q-56 0 -107 28q-26 16 -41.5 34.5t-25.5 49.5q-127 -112 -314 -112 q-226 0 -329 157q-70 107 -70 267zM274 430q0 -86 28.5 -150.5t78.5 -97.5q50 -32 127 -32q49 0 104 18q58 19 97 49q95 74 110 184l76 476q-101 14 -199 14q-103 0 -174 -29q-62 -26 -116 -80q-98 -94 -125 -266q-7 -54 -7 -86z" />
<glyph unicode="e" horiz-adv-x="1118" d="M78 373q0 47 10 112q38 241 191 394q164 161 380 161q157 0 261 -79q96 -74 96 -197q0 -17 -4 -49q-29 -180 -207 -266q-135 -66 -334 -66h-201q3 -126 72 -182q63 -54 188 -54q92 0 183 31q58 19 172 72l67 -135q-236 -135 -463 -135q-224 0 -333 141q-78 102 -78 252z M287 549h211q127 0 184 20q45 15 96 56q36 33 45 90q2 10 2 26q0 25 -10 52q-11 30 -43 49q-26 19 -65 28q-46 9 -82 9q-63 0 -117 -29q-48 -26 -100 -78q-93 -97 -121 -223z" />
<glyph unicode="f" horiz-adv-x="856" d="M-53 -530l243 1540q28 176 93.5 294t154.5 171q77 45 180 45q82 0 140 -21t98 -61q64 -64 64 -172q0 -24 -7 -68q-28 -188 -174 -297q-134 -98 -336 -98h-61l-39 -252h303l-26 -172h-304l-145 -909h-184zM371 975h61q258 0 293 221q4 32 4 41q0 47 -24 74q-34 37 -99 37 t-106 -35q-42 -34 -66 -86q-37 -75 -57 -211z" />
<glyph unicode="g" horiz-adv-x="1122" d="M84 406q0 59 8 106q37 228 207 379q80 71 186.5 111t223.5 40q89 0 157 -8l90 -12h144l-195 -1229q-25 -165 -135 -266q-109 -100 -264 -100q-74 0 -135.5 26.5t-98.5 73.5q-57 67 -57 168q0 17 6 65q21 133 103 224q-145 57 -205 215q-35 93 -35 207zM266 432 q0 -98 35 -172q57 -133 188 -133q113 0 230 100q40 35 67 74q27 44 29 59l80 500q-147 10 -209 10q-90 0 -154 -26q-65 -24 -122 -78q-115 -103 -138 -252q-6 -40 -6 -82zM401 -264q0 -21 2 -29q0 -16 21 -53q32 -55 108 -55q121 0 173 122q16 38 20 66l43 276 q-81 -59 -141 -77q-35 -13 -47 -23l-58 -35q-45 -25 -71 -55q-23 -23 -31.5 -40t-13.5 -46q-5 -22 -5 -51z" />
<glyph unicode="h" horiz-adv-x="1249" d="M8 6l236 1487h184l-86 -541q76 59 152.5 87t173.5 28q264 0 313 -190q10 -38 10 -76q0 -24 -8 -82l-84 -524v-13q0 -14 6.5 -17t22.5 -3q21 0 55 43l139 -101q-48 -54 -100 -84q-49 -32 -117 -32q-51 0 -84 16q-38 15 -63 43q-45 48 -45 117q0 21 2 31l84 518q4 32 4 47 q0 61 -33 94q-40 43 -141 43q-100 0 -176 -49q-82 -53 -148 -125l-112 -717h-185z" />
<glyph unicode="i" horiz-adv-x="534" d="M35 131q0 11 4 39l135 854h184l-135 -854v-8q0 -11 6 -17q7 -10 23 -10q12 0 29 17l24 24l141 -94q-109 -121 -225 -121q-90 0 -143 59q-43 46 -43 111zM203 1366q0 53 42 94t95 41q44 0 72 -28t28 -70q0 -55 -41 -95t-96 -40q-43 0 -71.5 27.5t-28.5 70.5z" />
<glyph unicode="j" horiz-adv-x="524" d="M-147 -420l167 96l17 -26q12 -15 26 -15q16 0 27 11q12 12 14 24l215 1358h185l-215 -1358q-15 -90 -88 -151q-52 -42 -86.5 -52t-94.5 -10q-100 0 -167 123zM340 1366q0 53 42 94t95 41q44 0 72.5 -28t28.5 -70q0 -55 -41.5 -95t-96.5 -40q-43 0 -71.5 27.5t-28.5 70.5z " />
<glyph unicode="k" horiz-adv-x="1208" d="M8 2l236 1487h184l-86 -543q132 117 307 117q158 0 240 -82q74 -74 74 -182q0 -13 -5 -58q-5 -28 -18 -67q-30 -82 -80 -135q-52 -55 -127 -95l127 -254q3 -8 21 -8q11 0 17 5.5t13 19.5q15 21 15 39l188 -8q-37 -158 -166 -215q-44 -21 -92 -21q-56 0 -100 27 q-47 23 -72 71l-139 293h-291l-61 -391h-185zM285 563h200q159 0 228 66q54 57 67 125q0 4 1 10.5t1 9.5q0 7 -4 23q-18 102 -155 102q-130 0 -226 -111q-85 -99 -112 -225z" />
<glyph unicode="l" horiz-adv-x="563" d="M37 158q0 23 2 35l205 1294h184l-205 -1294q0 -16 6 -25q10 -10 25 -10q13 0 29 16l24 25l139 -95q-108 -120 -225 -120q-85 0 -141 59q-43 46 -43 115z" />
<glyph unicode="m" horiz-adv-x="1902" d="M109 0l112 709q6 34 6 61q0 26 -8 66q-11 47 -59 102l135 106q81 -62 104 -137q139 133 334 133q196 0 264 -145q151 145 340 145q154 0 238 -84q67 -67 67 -180q0 -32 -6 -69l-82 -523v-8q0 -9 7 -16q7 -10 26 -10q23 0 53 40l136 -94q-98 -116 -222 -116q-72 0 -119 33 t-61 85q-6 24 -6 52q0 24 2 34l82 521q4 32 4 43q0 126 -149 126q-165 0 -287 -165l-113 -709h-184l108 678q5 25 5 55q0 54 -19 90q-29 51 -125 51q-125 0 -231 -98q-42 -42 -53 -63l-115 -713h-184z" />
<glyph unicode="n" horiz-adv-x="1349" d="M109 0l112 709q6 34 6 61q0 26 -8 66q-11 47 -59 102l133 106q87 -69 108 -147q79 73 165.5 108t199.5 35q121 0 204 -41t111 -125q11 -34 11 -81q0 -37 -5 -66l-88 -547q0 -14 7 -24q11 -11 28 -11q23 0 53 41l136 -94q-99 -117 -222 -117q-72 0 -119 33.5t-61 85.5 q-8 24 -8 58q0 20 2 28l80 496q6 35 6 59q0 61 -31 92q-43 50 -141 50q-90 0 -178 -52q-65 -39 -145 -123l-113 -702h-184z" />
<glyph unicode="o" horiz-adv-x="1284" d="M84 412q0 52 8 96q38 241 217 387q80 68 187 106.5t227 38.5q231 0 364 -145q103 -118 103 -285q0 -52 -8 -96q-38 -236 -211 -389q-156 -141 -416 -141q-49 0 -87.5 3.5t-92.5 16t-103 42t-88 75.5q-100 115 -100 291zM274 434q0 -112 62 -186q81 -101 237 -101 q86 0 162.5 29t124.5 72q22 21 45 49.5t52.5 87.5t39.5 121q0 6 2 20t2 21v20q0 133 -61 211q-79 96 -246 96q-166 0 -276 -98q-113 -101 -137 -266q-7 -47 -7 -76z" />
<glyph unicode="p" horiz-adv-x="1220" d="M25 -532l196 1234q6 34 6 62q0 27 -8 67q-15 52 -59 105l135 111q35 -33 55.5 -58t26.5 -37.5t18 -40.5q132 129 332 129q225 0 330 -159q69 -112 69 -271q0 -55 -8 -104q-19 -121 -73 -222t-127 -169q-162 -156 -435 -156q-50 0 -194 12l-80 -503h-184zM315 141 q126 -14 209 -14q94 0 164 31q64 27 117 80q98 98 123 258q6 46 6 86q0 102 -35 168q-57 120 -194 120q-85 0 -162 -41q-100 -52 -137 -149q-9 -27 -9 -29z" />
<glyph unicode="q" horiz-adv-x="1124" d="M82 379q0 61 8 110q19 120 73 221.5t128 172.5q163 157 438 157q85 0 192 -12.5t177 -34.5l-242 -1525h-184l92 579q-125 -88 -285 -88q-223 0 -329 158q-68 109 -68 262zM272 408q0 -82 27 -147t80 -101q51 -33 117 -33q45 0 90 10q38 8 78 31q96 51 139 149q8 24 8 29 l82 510q-126 14 -211 14q-94 0 -164 -28q-65 -30 -115 -80q-98 -101 -122 -262q-9 -70 -9 -92z" />
<glyph unicode="r" horiz-adv-x="864" d="M109 0l112 711q4 36 4 53q0 100 -65 174l135 106q75 -59 104 -135q128 131 310 131q39 0 77 -6q23 -6 76 -14l-26 -170q-99 22 -164 22q-70 0 -134 -38.5t-132 -124.5l-113 -709h-184z" />
<glyph unicode="s" horiz-adv-x="960" d="M8 117l119 135q85 -56 139 -76q76 -29 162 -29q201 0 225 142q2 8 2 24q0 40 -26 66q-31 31 -94 57q-96 40 -123 49q-50 15 -123 58q-109 66 -109 186q0 72 37.5 137.5t106.5 108.5q100 65 247 65q159 0 283 -75l-63 -162q-174 71 -267 71q-52 0 -94 -22q-55 -27 -55 -92 q0 -40 28 -62q44 -36 93 -53q94 -39 122 -49q59 -23 123 -64q107 -73 107 -196q0 -188 -174 -285q-120 -69 -285 -69q-215 0 -381 135z" />
<glyph unicode="t" horiz-adv-x="811" d="M74 223q0 39 6 88l153 967h185l-39 -244h323l-26 -176h-324l-88 -547q-4 -20 -4 -53q0 -73 39 -96q18 -15 53 -15q28 0 60 13q31 16 51 33q50 36 88 86l125 -99q-68 -95 -156 -147q-87 -51 -201 -51q-245 0 -245 241z" />
<glyph unicode="u" horiz-adv-x="1380" d="M156 911l123 144q170 -118 170 -248q0 -14 -3 -29l-69 -432q-6 -35 -6 -59q0 -57 28 -88q45 -52 144 -52q86 0 176 52q39 24 68.5 47.5t76.5 72.5l115 707h184l-135 -842v-8q0 -10 6 -16q7 -10 25 -10q12 0 31 16l24 27l139 -99q-105 -114 -225 -114q-68 0 -113 34 q-50 31 -69 95q-79 -63 -159.5 -93t-182.5 -30q-253 0 -311 166q-13 41 -13 81q0 41 4 64l78 481v6q0 39 -76 103z" />
<glyph unicode="v" horiz-adv-x="1073" d="M127 926l123 143q60 -39 110 -100q44 -60 58 -142l100 -524l367 721h188l-520 -1024h-168l-158 819q-11 56 -100 107z" />
<glyph unicode="w" horiz-adv-x="1738" d="M127 928l123 145q136 -95 166 -246l100 -520l365 719h168l135 -717l364 717h191l-518 -1024h-168l-138 717l-362 -717h-170l-154 817q-14 52 -102 109z" />
<glyph unicode="x" horiz-adv-x="1210" d="M4 0l428 510l-268 514h223l184 -365l295 365h219l-415 -510l180 -362q6 -15 27 -15q34 0 43 66l188 -10q-16 -64 -33 -93t-55 -67q-70 -70 -164 -70q-56 0 -108 25q-48 25 -72 71l-152 303l-301 -362h-219z" />
<glyph unicode="y" horiz-adv-x="1167" d="M156 907l123 148q73 -57 114 -109q53 -67 53 -147q0 -19 -2 -27l-69 -440q-6 -34 -6 -62q0 -59 26 -92q38 -47 131 -47q77 0 138 23q50 18 90 53q10 7 53 43q16 13 29 29q20 23 32 67l111 678h184l-121 -745l-77 -496q-27 -172 -136 -266q-111 -99 -268 -99 q-150 0 -227 103q-55 76 -55 180q0 74 27.5 148.5t74.5 125.5q-114 26 -166 105q-37 55 -37 137q0 41 4 64l78 491v6q0 42 -74 105zM461 -272q0 -48 20 -84q32 -54 107 -54t131 50q51 54 63 135l43 276q-86 -53 -149 -78q-74 -30 -111 -57q-104 -66 -104 -188z" />
<glyph unicode="z" horiz-adv-x="1148" d="M-2 49l713 805h-494l27 166h790l-10 -70l-657 -735l88 -29q39 -16 77 -24q90 -23 162 -23q81 0 221 82l64 -141q-169 -105 -297 -105q-125 0 -227 31q-23 6 -215 64l-113 -123z" />
<glyph unicode="{" horiz-adv-x="651" d="M18 506l27 170q111 12 158 45q20 14 26 51q7 40 7 74q0 57 2 96q6 174 20 268q15 98 64 156q44 53 110 88q59 32 141 51q95 23 150 39l25 -158l-72 -18q-46 -12 -66 -18q-21 -5 -57 -19q-29 -11 -45 -24q-41 -29 -51 -78q-15 -96 -15 -232q-3 -147 -16 -231 q-7 -41 -16 -68t-27.5 -47t-32 -30t-47.5 -31q70 -52 70 -135q0 -13 -4 -41q-15 -110 -56 -226q-40 -115 -49 -184q-6 -40 -6 -65q0 -21 2 -27q2 -14 23 -35q29 -29 106 -51q29 -7 66 -17.5t41 -11.5l-74 -157q-33 10 -137 38q-72 18 -127 52q-101 61 -101 182q0 37 4 57 q24 146 64 277q38 113 47 164q2 6 2 16q0 23 -12 35q-23 19 -43 26q-38 13 -101 19z" />
<glyph unicode="|" horiz-adv-x="376" d="M-23 -178l277 1751h197l-277 -1751h-197z" />
<glyph unicode="}" horiz-adv-x="649" d="M-100 -203l69 19q46 11 80 22q47 15 90 39q42 23 54 88q17 120 14 223q-3 109 16 228q15 110 117 174q-66 51 -66 135q0 6 5 41q10 73 49 217q58 198 63 244q2 8 2 22q0 39 -28 58q-35 24 -78 39q-29 11 -72 22l-63 18l73 158q58 -18 140 -39q76 -19 124 -51 q101 -61 101 -182q0 -38 -4 -58q-17 -116 -47 -215q-57 -187 -64 -225q-2 -6 -2 -18q0 -23 12 -35q14 -17 41 -27q19 -6 105 -16l-27 -172q-175 -18 -184 -90q-8 -36 -8 -80q-2 -27 -2 -94q-6 -184 -21 -275q-15 -94 -61 -149q-47 -53 -113 -88q-57 -32 -139 -52 q-108 -25 -152 -38z" />
<glyph unicode="~" horiz-adv-x="1073" d="M84 604q79 56 145 90q65 33 158 33q87 0 168 -35t150 -35q71 0 174 80l96 -139q-103 -70 -141 -86q-81 -35 -150 -35q-101 0 -201 41q-85 29 -121 29q-70 0 -182 -80z" />
<glyph unicode="&#xa1;" horiz-adv-x="456" d="M-43 -385l201 1130h184l-156 -1130h-229zM164 954q0 58 46 103t103 45q47 0 78 -31.5t31 -77.5q0 -58 -46 -101.5t-104 -43.5q-46 0 -77 31t-31 75z" />
<glyph unicode="&#xa2;" horiz-adv-x="1026" d="M41 526q0 74 10 133q30 185 152 334q130 157 309 197l35 209h196l-32 -205q134 -27 209 -117q53 -68 53 -168q0 -35 -6 -69h-125v22q3 10 12 10h-70q2 8 2 25q0 43 -22 74q-26 39 -80 55l-115 -727q64 8 140 41q26 11 75 32t60 25l69 -135q-191 -117 -372 -135l-21 -127 h-196l22 133q-190 34 -264 184q-41 87 -41 209zM227 551q0 -185 148 -238l110 703q-103 -47 -172 -164q-58 -94 -77 -213q-9 -74 -9 -88z" />
<glyph unicode="&#xa3;" horiz-adv-x="1159" d="M86 588l29 180h168l32 209q30 192 177 293q128 88 327 88l268 -19l-26 -170q-223 19 -301 19q-90 0 -158 -47q-72 -48 -90 -164l-33 -209h316l-29 -180h-315l-50 -314l-10 -45q57 -18 86 -30q43 -17 78 -25q73 -20 164 -20q89 0 223 84l57 -156q-162 -107 -297 -107 q-148 0 -290 50q-39 13 -97 30q-36 -55 -75 -86l-152 62q64 94 76 116q30 54 41 127l49 314h-168z" />
<glyph unicode="&#xa4;" horiz-adv-x="1427" d="M0 98l246 201q-47 80 -47 190q0 52 8 99q27 170 131 289l-180 204l157 133l191 -210q139 71 282 71q144 0 259 -71l256 210l118 -133l-247 -204q51 -94 51 -172q0 -42 -13 -115q-27 -171 -131 -287l185 -205l-160 -131l-193 211q-139 -74 -282 -74q-145 0 -258 70 l-254 -207zM401 522q0 -96 52 -160q68 -86 209 -86q134 0 239 91q64 58 83.5 101.5t31.5 125.5q6 37 6 68q0 94 -51 157q-72 84 -211 84q-144 0 -236 -86q-95 -86 -116 -227q-7 -40 -7 -68z" />
<glyph unicode="&#xa5;" horiz-adv-x="1280" d="M106 330l27 170h393l19 110l-6 8h-389l28 175h283l-287 559h227l273 -539l438 539h229l-458 -559h278l-28 -175h-385l-5 -8l-18 -110h391l-26 -170h-392l-53 -330h-194l53 330h-398z" />
<glyph unicode="&#xa6;" horiz-adv-x="391" d="M-25 -178l131 829h197l-131 -829h-197zM121 743l131 830h197l-132 -830h-196z" />
<glyph unicode="&#xa7;" horiz-adv-x="831" d="M68 27l73 14q76 17 88 20q111 28 146 60q31 28 37 63q0 2 1 6.5t1 6.5q0 25 -21 57q-17 28 -61 63q-29 23 -84 64q-39 24 -84 72q-70 73 -70 168q0 15 4 43q24 165 144 239q-25 55 -25 111q0 15 4 47q24 152 211 239q112 51 318 82l16 -168l-70 -14q-62 -13 -88 -20 q-116 -29 -147 -60q-30 -30 -35 -63l-2 -15q0 -25 20 -55q19 -31 62 -63q50 -40 84 -62q58 -43 84 -71q71 -78 71 -148q0 -27 -6 -65q-24 -161 -147 -240q26 -53 26 -115q0 -17 -4 -45q-12 -82 -71 -141q-56 -56 -137 -94q-115 -52 -320 -82zM297 664q-12 -70 125 -158 q17 -12 31 -23t20 -16q56 38 68 111q12 72 -125 157q-36 22 -54 37q-53 -33 -65 -108z" />
<glyph unicode="&#xa8;" horiz-adv-x="868" d="M211 1380q0 54 42 95t95 41q44 0 72.5 -29.5t28.5 -71.5q0 -54 -42 -93.5t-96 -39.5q-43 0 -71.5 27.5t-28.5 70.5zM702 1380q0 53 42.5 94.5t95.5 41.5q43 0 71.5 -29.5t28.5 -71.5q0 -54 -41.5 -93.5t-95.5 -39.5q-43 0 -72 28t-29 70z" />
<glyph unicode="&#xa9;" horiz-adv-x="1501" d="M68 367q0 52 10 127q46 294 258 481q212 186 502 186q288 0 444 -184q119 -138 119 -352q0 -51 -10 -123q-29 -189 -136.5 -340t-271.5 -235.5t-354 -84.5q-145 0 -254 47q-113 48 -189 136q-118 137 -118 342zM252 401q0 -146 80 -251q109 -140 323 -140q220 0 373 144 q145 136 180 348q9 49 9 98q0 154 -76 258q-20 28 -46 50t-49.5 36t-53.5 24t-51.5 14.5t-51 7t-44.5 2.5t-39 -0.5t-28 -0.5q-72 0 -165 -35t-171 -102q-145 -129 -182 -354q-8 -44 -8 -99zM449 416q0 49 8 90q18 117 70 204t132 126q60 28 132 28q54 0 210 -12l-26 -168 q-183 14 -207 14q-52 0 -85.5 -48t-47.5 -136q-6 -37 -6 -65q0 -134 108 -134q67 0 181 74l59 -139q-159 -100 -279 -100q-143 0 -209 106q-40 62 -40 160z" />
<glyph unicode="&#xaa;" horiz-adv-x="858" d="M193 1042q0 41 4 64q21 132 118 219q49 44 121 65.5t219 16.5h119l-74 -467l15 4l98 -67q-46 -50 -70 -66q-39 -31 -90 -31q-62 0 -96 43q-64 -43 -143 -43q-69 0 -117 31q-40 25 -70 76q-34 64 -34 155zM354 1073q-5 -45 19 -84t67 -39q58 0 111 86l31 203q-41 6 -72 6 q-55 0 -96 -41q-8 -8 -14.5 -15t-12 -15.5t-9 -14t-7 -15t-5.5 -13.5t-4 -15t-2.5 -13.5l-3 -15t-2.5 -14.5z" />
<glyph unicode="&#xab;" horiz-adv-x="1247" d="M72 514q9 62 96 125l512 401l102 -137l-501 -389l378 -389l-145 -135l-387 399q-64 64 -55 125zM502 514q9 62 96 125l512 401l102 -137l-501 -389l379 -389l-146 -135l-387 399q-64 64 -55 125z" />
<glyph unicode="&#xac;" horiz-adv-x="985" d="M63 506l29 190h809l-67 -430h-199l39 240h-611z" />
<glyph unicode="&#xad;" horiz-adv-x="1187" d="M90 532l29 189h680l-29 -189h-680z" />
<glyph unicode="&#xae;" horiz-adv-x="1501" d="M125 731q0 53 10 125q45 295 258 481q213 187 502 187q138 0 252.5 -47t191.5 -138q119 -143 119 -360q0 -62 -8 -111q-22 -134 -88.5 -259t-167.5 -220q-197 -186 -489 -186q-149 0 -273 51q-112 44 -188 133q-119 139 -119 344zM309 764q0 -147 80 -252 q108 -139 324 -139q220 0 372 143q147 137 181 348q8 47 8 101q0 152 -76 256q-20 28 -46 50t-49.5 36t-53 24t-51.5 14.5t-51 7t-44 2.5t-39 -0.5t-28 -0.5q-72 0 -165 -35t-171 -102q-146 -130 -183 -355q-8 -44 -8 -98zM500 457l108 680q15 82 19 100h28l82 4l123 10 q104 0 173 -54t69 -150q0 -141 -123 -226q32 -32 37 -73l57 -222l-174 -69l-45 209q-12 53 -45 73q-37 21 -88 23l-47 -305h-174zM745 915h82q36 0 65.5 30.5t35.5 66.5v12q0 22 -8 35q-16 33 -70 33q-20 0 -78 -13z" />
<glyph unicode="&#xaf;" horiz-adv-x="864" d="M186 1290l31 189h739l-30 -189h-740z" />
<glyph unicode="&#xb0;" horiz-adv-x="802" d="M166 1022q0 38 4 61q20 132 119 224q104 90 237 90q136 0 211 -84q54 -69 54 -166q0 -35 -5 -60q-21 -134 -120 -223q-47 -42 -87.5 -62t-67.5 -23t-83 -3q-137 0 -209 84q-53 62 -53 162zM350 1057q0 -38 19 -70q21 -41 86 -41q59 0 100 41q38 38 47 96q2 10 2 31 q0 40 -18 70q-27 41 -86 41q-28 0 -46.5 -5.5t-27 -12t-25.5 -23.5q-40 -40 -49 -99q-2 -10 -2 -28z" />
<glyph unicode="&#xb1;" horiz-adv-x="997" d="M-18 -35l26 178h834l-27 -178h-833zM68 514l28 176h324l51 328h186l-51 -328h324l-29 -176h-323l-52 -330h-186l51 330h-323z" />
<glyph unicode="&#xb2;" horiz-adv-x="630" d="M109 813l8 45q24 155 184 264l78 52q82 55 88 88q2 8 2 20q0 18 -8 23q-8 8 -37 8l-209 -6l25 151q117 15 211 15q96 0 145 -52q37 -37 37 -104q0 -35 -4 -53q-14 -98 -107 -172q-50 -37 -86 -58q-54 -34 -84 -61h264l-26 -160h-481z" />
<glyph unicode="&#xb3;" horiz-adv-x="598" d="M113 823l26 162q131 -16 174 -16q53 0 80 8q25 9 31 39q0 3 1 9t1 9q0 25 -16 51q-31 -8 -101 -8h-71l24 160h107q23 0 47 6q21 3 24 33q2 4 2 12q0 18 -10 21q-15 6 -39 6l-196 -6l22 153q133 11 195 11q190 0 190 -152q0 -15 -4 -47q-10 -56 -41 -98q37 -55 37 -113 q0 -19 -2 -27q-12 -69 -39 -110q-26 -39 -66 -68q-73 -49 -190 -49q-33 0 -186 14z" />
<glyph unicode="&#xb4;" horiz-adv-x="600" d="M176 1280l426 299l92 -162l-454 -264z" />
<glyph unicode="&#xb5;" horiz-adv-x="1067" d="M-98 -510l241 1530h185l-109 -692q-4 -28 -4 -45q0 -68 37.5 -112t116.5 -44q106 0 180 51q76 55 145 129l113 713h184l-114 -727q-5 -25 -5 -57q0 -103 62 -177l-133 -106q-81 61 -109 151q-151 -145 -346 -145q-104 0 -180 31l-80 -500h-184z" />
<glyph unicode="&#xb6;" horiz-adv-x="1220" d="M131 825q0 35 6 72q16 100 63.5 171t123 111.5t164.5 59.5t202 21q180 4 262 4q93 0 305 -7l-200 -1257h-166l182 1141h-237l-183 -1141h-170l82 510q-434 28 -434 315z" />
<glyph unicode="&#xb7;" horiz-adv-x="419" d="M104 645q0 4 1 12t1 11q7 52 50 89.5t96 37.5q44 0 74 -30t30 -73q0 -44 -27 -81t-67 -52q-25 -14 -57 -14t-46 7.5t-30 27.5q-25 32 -25 65z" />
<glyph unicode="&#xb8;" horiz-adv-x="489" d="M-57 -270l88 268h184l-37 -109q67 -21 94 -79q17 -38 17 -89q0 -24 -2 -38q-9 -60 -41 -109q-25 -42 -72 -80q-41 -30 -84.5 -45.5t-65 -17.5t-57.5 -2l29 180q35 0 70 14q31 13 40 58v10q0 23 -10 30q-18 9 -47 9h-106z" />
<glyph unicode="&#xb9;" horiz-adv-x="477" d="M150 1257l53 129q47 -12 86 -12q64 0 194 74l45 -29l-90 -571h-170l62 393q-52 -10 -74 -10q-41 0 -106 26z" />
<glyph unicode="&#xba;" horiz-adv-x="800" d="M174 1075q0 44 4 64q23 143 125 235q101 94 250 94q141 0 219 -94q55 -71 55 -170q0 -30 -6 -65q-21 -146 -123 -238q-107 -98 -256 -98q-66 0 -123 24q-53 24 -90 70q-55 67 -55 178zM348 1100q0 -46 19 -82q25 -49 104 -49q81 0 125 53q61 66 61 152q0 48 -24 86 q-34 45 -109 45q-74 0 -116 -45q-28 -28 -44 -72t-16 -88z" />
<glyph unicode="&#xbb;" horiz-adv-x="1247" d="M4 125l502 389l-379 389l147 137l385 -401q67 -67 58 -125q-9 -60 -99 -125l-509 -399zM434 125l502 389l-379 389l148 137l385 -401q66 -66 57 -125q-9 -60 -98 -125l-510 -399z" />
<glyph unicode="&#xbc;" horiz-adv-x="1419" d="M164 1163l55 135q46 -12 86 -12q53 0 197 78l45 -29l-98 -610h-170l67 420q-38 -10 -70 -10q-54 0 -112 28zM238 0l684 1339h194l-682 -1339h-196zM811 182l131 430h164l-86 -276h123l45 276h166l-99 -612h-165l30 182h-309z" />
<glyph unicode="&#xbd;" horiz-adv-x="1394" d="M164 1163l55 135q46 -12 86 -12q53 0 197 78l45 -29l-98 -610h-170l67 420q-38 -10 -70 -10q-54 0 -112 28zM238 0l684 1339h194l-682 -1339h-196zM750 0l8 43q10 64 23 92t44 60q56 59 115 100q54 38 111 70q49 30 55 63v14q0 19 -6 25q-11 8 -39 8l-207 -6l23 145 q111 13 200 13q101 0 154 -47q41 -38 41 -107q0 -13 -4 -45q-15 -93 -109 -162q-52 -38 -82 -55q-53 -31 -86 -59h264l-24 -152h-481z" />
<glyph unicode="&#xbe;" horiz-adv-x="1431" d="M96 733l25 152q17 -1 94 -11q47 -6 92 -6q39 0 66 9q28 8 33 41q0 3 1 8t1 8q0 27 -17 47q-31 -8 -100 -8h-72l25 153h106q19 0 43 4q24 3 27 33q2 4 2 13q0 15 -10 18q-20 4 -39 4l-197 -6l23 145q97 11 168 11q125 0 174 -43q43 -40 43 -105q0 -23 -2 -35 q-10 -54 -41 -98q39 -59 39 -92q0 -15 -2 -21q-20 -125 -96.5 -182t-215.5 -57q-49 0 -88 8q-53 8 -82 10zM250 0l684 1337h194l-682 -1337h-196zM823 182l131 430h164l-86 -276h123l45 276h166l-98 -612h-166l31 182h-310z" />
<glyph unicode="&#xbf;" horiz-adv-x="1026" d="M-10 -12q0 32 6 69q41 254 307 389q65 33 127 68q68 38 105 70q42 42 47 78q4 27 4 65q-4 35 -2 51l178 37q6 -37 6 -78q0 -42 -8 -78q-12 -77 -55 -135q-47 -59 -109 -100q-55 -36 -129 -74q-98 -50 -129 -69q-65 -43 -105 -91q-46 -52 -55 -118q-4 -20 -4 -54 q0 -37 8 -61q16 -49 49 -78q67 -67 179 -67q69 0 125 20q51 15 94 41q31 22 37 51v10q0 29 -33 29q-22 0 -41 -8l-47 115q65 45 110 45q43 0 78 -15q37 -16 60 -39q43 -46 43 -106q0 -17 -2 -27q-12 -76 -62 -129q-46 -52 -117 -88q-132 -69 -247 -69t-191 28 q-72 27 -131 86q-96 96 -96 232zM530 977q0 58 46 101.5t104 43.5q46 0 77 -31t31 -75q0 -58 -45 -103t-102 -45q-47 0 -79 31.5t-32 77.5z" />
<glyph unicode="&#xc0;" horiz-adv-x="1640" d="M-18 199l186 34q5 -27 8 -36q6 -21 25 -21q20 0 30 17l744 1212h86l416 -1405h-211l-123 442h-555l-193 -323q-43 -65 -98 -92q-56 -33 -131 -33q-83 0 -133 59q-51 60 -51 146zM692 621h400l-127 450zM700 1798l144 162l327 -299l-100 -127z" />
<glyph unicode="&#xc1;" horiz-adv-x="1640" d="M-18 199l186 34q5 -27 8 -36q6 -21 25 -21q20 0 30 17l744 1212h86l416 -1405h-211l-123 442h-555l-193 -323q-43 -65 -98 -92q-56 -33 -131 -33q-83 0 -133 59q-51 60 -51 146zM692 621h400l-127 450zM952 1661l426 299l92 -162l-454 -264z" />
<glyph unicode="&#xc2;" horiz-adv-x="1640" d="M-18 199l186 34q5 -27 8 -36q6 -21 25 -21q20 0 30 17l744 1212h86l416 -1405h-211l-123 442h-555l-193 -323q-43 -65 -98 -92q-56 -33 -131 -33q-83 0 -133 59q-51 60 -51 146zM672 1626l370 363h134l260 -363h-236l-123 164l-174 -164h-231zM692 621h400l-127 450z" />
<glyph unicode="&#xc3;" horiz-adv-x="1640" d="M-18 199l186 34q5 -27 8 -36q6 -21 25 -21q20 0 30 17l744 1212h86l416 -1405h-211l-123 442h-555l-193 -323q-43 -65 -98 -92q-56 -33 -131 -33q-83 0 -133 59q-51 60 -51 146zM662 1765q164 123 292 123q58 0 119 -22q69 -30 93 -37.5t44 -7.5q77 0 183 80l94 -140 q-70 -50 -135 -84q-74 -39 -140 -39q-53 0 -90 13q-27 6 -71 22q-93 35 -133 35q-60 0 -164 -82zM692 621h400l-127 450z" />
<glyph unicode="&#xc4;" horiz-adv-x="1640" d="M-18 199l186 34q5 -27 8 -36q6 -21 25 -21q20 0 30 17l744 1212h86l416 -1405h-211l-123 442h-555l-193 -323q-43 -65 -98 -92q-56 -33 -131 -33q-83 0 -133 59q-51 60 -51 146zM692 621h400l-127 450zM711 1761q0 53 42 94t95 41q44 0 72 -29t28 -71q0 -54 -41.5 -93.5 t-95.5 -39.5q-43 0 -71.5 27.5t-28.5 70.5zM1202 1761q0 53 42 94t95 41q44 0 72.5 -29t28.5 -71q0 -54 -41.5 -93.5t-95.5 -39.5q-43 0 -72 28t-29 70z" />
<glyph unicode="&#xc5;" horiz-adv-x="1640" d="M-18 199l186 34q5 -27 8 -36q6 -21 25 -21q20 0 30 17l744 1212h86l416 -1405h-211l-123 442h-555l-193 -323q-43 -65 -98 -92q-56 -33 -131 -33q-83 0 -133 59q-51 60 -51 146zM692 621h400l-127 450zM827 1700q0 35 4 55q17 108 91 176q79 70 190 70q109 0 164 -70 q45 -54 45 -131q0 -132 -98 -223q-79 -70 -187 -70q-114 0 -168 66q-41 48 -41 127zM1001 1724q0 -57 56 -57q41 0 65.5 31t24.5 82q0 59 -60 59q-86 0 -86 -115z" />
<glyph unicode="&#xc6;" horiz-adv-x="1972" d="M-49 0l995 1401h1024l-28 -178h-793l-64 -396h650l-27 -178h-649l-76 -469h834l-29 -180h-1030l71 442h-335l-312 -442h-231zM618 623h240l68 438q-16 -24 -154 -219t-154 -219z" />
<glyph unicode="&#xc7;" horiz-adv-x="1560" d="M102 573q0 55 9 113q28 165 110 299q79 135 203 244q124 106 272 166q147 59 308 59q180 0 309 -74q141 -82 141 -217q0 -112 -88 -190q-73 -62 -164 -62q-81 0 -155 66l135 135q2 0 20 -12q4 -2 10.5 -8.5t14.5 -6.5q19 0 28 13q10 10 15 35q10 73 -107 114 q-91 31 -196 31q-114 0 -226 -47q-113 -47 -206 -127q-99 -86 -158 -186q-67 -112 -82 -230q-8 -44 -8 -92q0 -72 18 -127q23 -92 90 -178q25 -33 55.5 -59t57 -43t60.5 -28.5t57 -17.5t57 -9t48.5 -3.5t43.5 0t31 0.5q109 0 243.5 65t237.5 187l135 -100 q-135 -153 -307 -240q-173 -86 -362 -86q-155 0 -287 55q-124 52 -215 154q-86 99 -125 231q-23 87 -23 176zM592 -313l88 268h184l-37 -109q68 -21 95 -79q16 -36 16 -89q0 -24 -2 -38q-9 -60 -41 -109q-25 -42 -72 -80q-41 -30 -84.5 -45.5t-65 -17.5t-57.5 -2l29 180 q35 0 70 14q32 14 41 58v10q0 23 -11 30q-18 9 -47 9h-106z" />
<glyph unicode="&#xc8;" horiz-adv-x="1357" d="M127 1128q15 110 96 191q82 82 193 82h981l-29 -178h-793l-63 -396h547l-27 -178h-547l-75 -469h792l-28 -180h-990l195 1223q-35 -7 -49 -37q-17 -38 -17 -58h-186zM573 1794l144 162l327 -299l-100 -127z" />
<glyph unicode="&#xc9;" horiz-adv-x="1357" d="M127 1128q15 110 96 191q82 82 193 82h981l-29 -178h-793l-63 -396h547l-27 -178h-547l-75 -469h792l-28 -180h-990l195 1223q-35 -7 -49 -37q-17 -38 -17 -58h-186zM825 1657l426 299l92 -162l-454 -264z" />
<glyph unicode="&#xca;" horiz-adv-x="1357" d="M127 1128q15 110 96 191q82 82 193 82h981l-29 -178h-793l-63 -396h547l-27 -178h-547l-75 -469h792l-28 -180h-990l195 1223q-35 -7 -49 -37q-17 -38 -17 -58h-186zM545 1622l370 363h134l260 -363h-236l-123 164l-174 -164h-231z" />
<glyph unicode="&#xcb;" horiz-adv-x="1357" d="M127 1128q15 110 96 191q82 82 193 82h981l-29 -178h-793l-63 -396h547l-27 -178h-547l-75 -469h792l-28 -180h-990l195 1223q-35 -7 -49 -37q-17 -38 -17 -58h-186zM584 1757q0 53 42 94t95 41q44 0 72 -29t28 -71q0 -54 -41.5 -93.5t-95.5 -39.5q-43 0 -71.5 27.5 t-28.5 70.5zM1075 1757q0 53 42 94t95 41q44 0 72.5 -29t28.5 -71q0 -54 -41.5 -93.5t-95.5 -39.5q-43 0 -72 28t-29 70z" />
<glyph unicode="&#xcc;" horiz-adv-x="430" d="M29 0l223 1401h197l-224 -1401h-196zM37 1794l143 162l328 -299l-100 -127z" />
<glyph unicode="&#xcd;" horiz-adv-x="430" d="M29 0l223 1401h197l-224 -1401h-196zM289 1657l426 299l92 -162l-455 -264z" />
<glyph unicode="&#xce;" horiz-adv-x="430" d="M8 1622l371 363h133l260 -363h-235l-123 164l-174 -164h-232zM29 0l223 1401h197l-224 -1401h-196z" />
<glyph unicode="&#xcf;" horiz-adv-x="430" d="M29 0l223 1401h197l-224 -1401h-196zM47 1757q0 53 42 94t95 41q44 0 72.5 -29t28.5 -71q0 -54 -42 -93.5t-96 -39.5q-43 0 -71.5 27.5t-28.5 70.5zM539 1757q0 53 42 94t95 41q44 0 72 -29t28 -71q0 -54 -41.5 -93.5t-95.5 -39.5q-43 0 -71.5 27.5t-28.5 70.5z" />
<glyph unicode="&#xd0;" horiz-adv-x="1677" d="M90 594l29 188h209l71 453h-12q-35 0 -53 -35q-19 -32 -19 -59h-186q16 109 94 190q29 29 55.5 47t53 24.5t44 8t44.5 0.5h612q302 0 463 -205q121 -157 121 -377q0 -52 -10 -124q-25 -154 -101 -293t-192 -238q-120 -102 -279 -147t-377 -45q-111 0 -262 6.5t-190 19.5 l92 586h-207zM426 164q96 -8 299 -8q302 0 473 145q78 68 135 171t78 228q8 49 8 105q0 170 -86 280q-116 150 -350 150h-387l-72 -453h275l-29 -188h-276z" />
<glyph unicode="&#xd1;" horiz-adv-x="1634" d="M-18 188q0 16 4 48h186l-2 -13q-2 -8 -2 -18q0 -11 2 -17q0 -18 33 -18q27 0 33 29l190 1202h129q26 -36 100 -127q61 -80 142 -191q5 -7 227 -315q164 -234 270 -377l154 1008h194l-223 -1399h-90l-770 1069l-129 -868q-15 -88 -96 -148q-80 -59 -168 -59 q-101 0 -148 74q-36 50 -36 120zM680 1761q164 123 293 123q58 0 119 -22q69 -30 93 -37.5t44 -7.5q78 0 182 79l94 -139q-70 -50 -135 -84q-74 -39 -139 -39q-53 0 -90 13q-30 7 -72 22q-93 35 -133 35q-60 0 -164 -82z" />
<glyph unicode="&#xd2;" horiz-adv-x="1687" d="M98 561q0 43 11 115l6 39q21 146 106 289q73 123 199 229q122 104 264 158q146 55 297 55q155 0 281 -57q122 -55 213 -156q92 -103 129 -232q22 -86 22 -174q0 -60 -8 -112l-6 -39q-9 -53 -17 -87t-30.5 -89.5t-57.5 -110.5q-76 -127 -202 -231q-123 -102 -258 -154 q-146 -57 -304 -57q-147 0 -274 57q-129 58 -215 156q-92 106 -129 231q-27 79 -27 170zM287 584q0 -168 112 -301q64 -76 162 -119t209 -43q116 0 228 43.5t198 116.5q93 80 152 183.5t77 211.5l7 39q6 43 6 84q0 65 -19 133q-24 94 -94 176q-64 77 -159.5 119.5 t-213.5 42.5q-113 0 -223 -43q-103 -41 -199 -119q-195 -168 -229 -393l-6 -39q-8 -62 -8 -92zM653 1794l144 162l327 -299l-100 -127z" />
<glyph unicode="&#xd3;" horiz-adv-x="1687" d="M98 561q0 43 11 115l6 39q21 146 106 289q73 123 199 229q122 104 264 158q146 55 297 55q155 0 281 -57q122 -55 213 -156q92 -103 129 -232q22 -86 22 -174q0 -60 -8 -112l-6 -39q-9 -53 -17 -87t-30.5 -89.5t-57.5 -110.5q-76 -127 -202 -231q-123 -102 -258 -154 q-146 -57 -304 -57q-147 0 -274 57q-129 58 -215 156q-92 106 -129 231q-27 79 -27 170zM287 584q0 -168 112 -301q64 -76 162 -119t209 -43q116 0 228 43.5t198 116.5q93 80 152 183.5t77 211.5l7 39q6 43 6 84q0 65 -19 133q-24 94 -94 176q-64 77 -159.5 119.5 t-213.5 42.5q-113 0 -223 -43q-103 -41 -199 -119q-195 -168 -229 -393l-6 -39q-8 -62 -8 -92zM905 1657l426 299l92 -162l-454 -264z" />
<glyph unicode="&#xd4;" horiz-adv-x="1687" d="M98 561q0 43 11 115l6 39q21 146 106 289q73 123 199 229q122 104 264 158q146 55 297 55q155 0 281 -57q122 -55 213 -156q92 -103 129 -232q22 -86 22 -174q0 -60 -8 -112l-6 -39q-9 -53 -17 -87t-30.5 -89.5t-57.5 -110.5q-76 -127 -202 -231q-123 -102 -258 -154 q-146 -57 -304 -57q-147 0 -274 57q-129 58 -215 156q-92 106 -129 231q-27 79 -27 170zM287 584q0 -168 112 -301q64 -76 162 -119t209 -43q116 0 228 43.5t198 116.5q93 80 152 183.5t77 211.5l7 39q6 43 6 84q0 65 -19 133q-24 94 -94 176q-64 77 -159.5 119.5 t-213.5 42.5q-113 0 -223 -43q-103 -41 -199 -119q-195 -168 -229 -393l-6 -39q-8 -62 -8 -92zM625 1622l370 363h133l261 -363h-236l-123 164l-174 -164h-231z" />
<glyph unicode="&#xd5;" horiz-adv-x="1687" d="M98 561q0 43 11 115l6 39q21 146 106 289q73 123 199 229q122 104 264 158q146 55 297 55q155 0 281 -57q122 -55 213 -156q92 -103 129 -232q22 -86 22 -174q0 -60 -8 -112l-6 -39q-9 -53 -17 -87t-30.5 -89.5t-57.5 -110.5q-76 -127 -202 -231q-123 -102 -258 -154 q-146 -57 -304 -57q-147 0 -274 57q-129 58 -215 156q-92 106 -129 231q-27 79 -27 170zM287 584q0 -168 112 -301q64 -76 162 -119t209 -43q116 0 228 43.5t198 116.5q93 80 152 183.5t77 211.5l7 39q6 43 6 84q0 65 -19 133q-24 94 -94 176q-64 77 -159.5 119.5 t-213.5 42.5q-113 0 -223 -43q-103 -41 -199 -119q-195 -168 -229 -393l-6 -39q-8 -62 -8 -92zM614 1761q164 123 293 123q58 0 119 -22q69 -30 93 -37.5t44 -7.5q79 0 183 79l94 -139q-70 -50 -135 -84q-74 -39 -140 -39q-53 0 -90 13q-27 6 -71 22q-93 35 -134 35 q-59 0 -163 -82z" />
<glyph unicode="&#xd6;" horiz-adv-x="1687" d="M98 561q0 43 11 115l6 39q21 146 106 289q73 123 199 229q122 104 264 158q146 55 297 55q155 0 281 -57q122 -55 213 -156q92 -103 129 -232q22 -86 22 -174q0 -60 -8 -112l-6 -39q-9 -53 -17 -87t-30.5 -89.5t-57.5 -110.5q-76 -127 -202 -231q-123 -102 -258 -154 q-146 -57 -304 -57q-147 0 -274 57q-129 58 -215 156q-92 106 -129 231q-27 79 -27 170zM287 584q0 -168 112 -301q64 -76 162 -119t209 -43q116 0 228 43.5t198 116.5q93 80 152 183.5t77 211.5l7 39q6 43 6 84q0 65 -19 133q-24 94 -94 176q-64 77 -159.5 119.5 t-213.5 42.5q-113 0 -223 -43q-103 -41 -199 -119q-195 -168 -229 -393l-6 -39q-8 -62 -8 -92zM664 1757q0 53 42 94t95 41q44 0 72 -29t28 -71q0 -54 -41.5 -93.5t-95.5 -39.5q-43 0 -71.5 27.5t-28.5 70.5zM1155 1757q0 53 42 94t95 41q44 0 72.5 -29t28.5 -71 q0 -54 -42 -93.5t-96 -39.5q-43 0 -71.5 27.5t-28.5 70.5z" />
<glyph unicode="&#xd7;" horiz-adv-x="1013" d="M23 279l348 296l-242 287l154 131l243 -286l334 286l109 -129l-334 -282l256 -299l-154 -131l-256 299l-350 -301z" />
<glyph unicode="&#xd8;" horiz-adv-x="1691" d="M98 559q0 38 11 117l6 37q21 148 106 291q75 125 199 229q121 103 266 158q146 55 299 55q158 0 297 -68l39 49l184 -59l-73 -92q112 -101 159 -244q37 -109 37 -223q0 -49 -10 -121q-24 -156 -113 -299q-78 -132 -196 -231q-129 -105 -269 -158q-143 -55 -303 -55 q-169 0 -323 82l-99 -123l-188 57l143 174q-99 102 -143 240q-29 107 -29 184zM285 573q0 -91 28 -157t82 -129l764 942q-93 41 -205 41q-114 0 -225 -43q-110 -43 -201 -119q-96 -80 -153 -182.5t-80 -239.5q-10 -68 -10 -113zM537 174q107 -55 231 -55q119 0 229 45 q106 44 197 119q191 160 231 393l7 37q6 44 6 86q0 75 -23 143q-33 107 -108 182z" />
<glyph unicode="&#xd9;" horiz-adv-x="1576" d="M154 1292q113 127 239 127q94 0 152 -63q49 -49 49 -127q0 -23 -2 -35l-103 -637q-6 -43 -6 -82q0 -131 62 -209q84 -108 268 -108t303 108q123 111 148 291l135 846h196l-135 -846q-41 -262 -229 -418q-187 -155 -445 -155q-261 0 -397 155q-104 118 -104 310 q0 59 8 108l102 637v10q0 31 -33 31q-21 0 -36 -18l-27 -29zM692 1794l144 162l327 -299l-100 -127z" />
<glyph unicode="&#xda;" horiz-adv-x="1576" d="M154 1292q113 127 239 127q94 0 152 -63q49 -49 49 -127q0 -23 -2 -35l-103 -637q-6 -43 -6 -82q0 -131 62 -209q84 -108 268 -108t303 108q123 111 148 291l135 846h196l-135 -846q-41 -262 -229 -418q-187 -155 -445 -155q-261 0 -397 155q-104 118 -104 310 q0 59 8 108l102 637v10q0 31 -33 31q-21 0 -36 -18l-27 -29zM944 1657l426 299l92 -162l-454 -264z" />
<glyph unicode="&#xdb;" horiz-adv-x="1576" d="M154 1292q113 127 239 127q94 0 152 -63q49 -49 49 -127q0 -23 -2 -35l-103 -637q-6 -43 -6 -82q0 -131 62 -209q84 -108 268 -108t303 108q123 111 148 291l135 846h196l-135 -846q-41 -262 -229 -418q-187 -155 -445 -155q-261 0 -397 155q-104 118 -104 310 q0 59 8 108l102 637v10q0 31 -33 31q-21 0 -36 -18l-27 -29zM664 1622l370 363h133l260 -363h-235l-123 164l-174 -164h-231z" />
<glyph unicode="&#xdc;" horiz-adv-x="1576" d="M154 1292q113 127 239 127q94 0 152 -63q49 -49 49 -127q0 -23 -2 -35l-103 -637q-6 -43 -6 -82q0 -131 62 -209q84 -108 268 -108t303 108q123 111 148 291l135 846h196l-135 -846q-41 -262 -229 -418q-187 -155 -445 -155q-261 0 -397 155q-104 118 -104 310 q0 59 8 108l102 637v10q0 31 -33 31q-21 0 -36 -18l-27 -29zM702 1757q0 53 42.5 94t95.5 41q44 0 72 -29t28 -71q0 -54 -41.5 -93.5t-95.5 -39.5q-43 0 -72 28t-29 70zM1194 1757q0 53 42 94t95 41q44 0 72.5 -29t28.5 -71q0 -54 -42 -93.5t-96 -39.5q-43 0 -71.5 27.5 t-28.5 70.5z" />
<glyph unicode="&#xdd;" horiz-adv-x="1355" d="M139 1194q25 98 92 162q71 65 170 65q130 0 179 -110l206 -492l435 584h225l-594 -795l-92 -608h-209l104 604l-258 619q-6 16 -28 16q-20 0 -29 -22l-14 -41zM805 1657l426 299l92 -162l-455 -264z" />
<glyph unicode="&#xde;" horiz-adv-x="1105" d="M29 0l223 1401h197l-37 -236h282q190 0 291 -123q76 -92 76 -237q0 -35 -6 -76q-17 -99 -65.5 -184.5t-117.5 -145.5q-147 -129 -354 -129h-131l31 176h123q130 0 215 80q85 76 106 205q4 36 4 55q0 91 -49 140q-65 65 -190 65h-244l-158 -991h-196z" />
<glyph unicode="&#xdf;" horiz-adv-x="1050" d="M-78 -510l238 1503q56 345 252 465q74 45 168 45q85 0 147 -16q56 -17 98 -53q66 -63 66 -168q0 -18 -4 -58q-13 -81 -51 -125q-35 -46 -80 -82q-77 -57 -80 -59q-35 -28 -41 -72q-2 -8 -2 -22q0 -31 18 -55q21 -35 62 -62q67 -49 82 -57q38 -26 79 -74q62 -74 62 -190 q0 -24 -8 -86q-24 -167 -174 -271q-131 -88 -314 -88q-130 0 -256 12l-78 -487h-184zM211 145q92 -10 201 -10q111 0 159 10q34 8 76 33q76 49 88 131q6 30 6 58q0 35 -14 67q-21 44 -59 74q-64 47 -84 59q-48 28 -82 68q-68 71 -68 178q0 31 6 68q9 73 52 123q43 49 83 79 q14 10 40 30.5t40 29.5q37 27 43 65q2 8 2 27q0 96 -131 96q-107 0 -166 -121q-36 -67 -57 -211z" />
<glyph unicode="&#xe0;" d="M82 397q0 58 8 105q37 234 201 385q164 153 414 153q69 0 155 -6q64 -12 144 -12l26 2h74l-133 -838v-8q0 -10 6 -16q10 -10 22 -10q18 0 33 18q16 21 25 27l135 -99q-98 -116 -217 -116q-60 0 -111 28q-49 28 -67 82q-128 -110 -316 -110q-220 0 -327 155 q-72 109 -72 260zM272 438q0 -104 37 -176q57 -115 199 -115q111 0 201 66q92 68 110 180l74 467q-203 14 -246 14q-65 0 -129 -28q-61 -27 -112 -78q-45 -45 -80.5 -113t-46.5 -143q-7 -44 -7 -74zM367 1434l143 161l328 -299l-101 -127z" />
<glyph unicode="&#xe1;" d="M82 397q0 58 8 105q37 234 201 385q164 153 414 153q69 0 155 -6q64 -12 144 -12l26 2h74l-133 -838v-8q0 -10 6 -16q10 -10 22 -10q18 0 33 18q16 21 25 27l135 -99q-98 -116 -217 -116q-60 0 -111 28q-49 28 -67 82q-128 -110 -316 -110q-220 0 -327 155 q-72 109 -72 260zM272 438q0 -104 37 -176q57 -115 199 -115q111 0 201 66q92 68 110 180l74 467q-203 14 -246 14q-65 0 -129 -28q-61 -27 -112 -78q-45 -45 -80.5 -113t-46.5 -143q-7 -44 -7 -74zM618 1296l426 299l93 -161l-455 -265z" />
<glyph unicode="&#xe2;" d="M82 397q0 58 8 105q37 234 201 385q164 153 414 153q69 0 155 -6q64 -12 144 -12l26 2h74l-133 -838v-8q0 -10 6 -16q10 -10 22 -10q18 0 33 18q16 21 25 27l135 -99q-98 -116 -217 -116q-60 0 -111 28q-49 28 -67 82q-128 -110 -316 -110q-220 0 -327 155 q-72 109 -72 260zM272 438q0 -104 37 -176q57 -115 199 -115q111 0 201 66q92 68 110 180l74 467q-203 14 -246 14q-65 0 -129 -28q-61 -27 -112 -78q-45 -45 -80.5 -113t-46.5 -143q-7 -44 -7 -74zM338 1262l371 362h133l260 -362h-236l-123 163l-174 -163h-231z" />
<glyph unicode="&#xe3;" d="M82 397q0 58 8 105q37 234 201 385q164 153 414 153q69 0 155 -6q64 -12 144 -12l26 2h74l-133 -838v-8q0 -10 6 -16q10 -10 22 -10q18 0 33 18q16 21 25 27l135 -99q-98 -116 -217 -116q-60 0 -111 28q-49 28 -67 82q-128 -110 -316 -110q-220 0 -327 155 q-72 109 -72 260zM272 438q0 -104 37 -176q57 -115 199 -115q111 0 201 66q92 68 110 180l74 467q-203 14 -246 14q-65 0 -129 -28q-61 -27 -112 -78q-45 -45 -80.5 -113t-46.5 -143q-7 -44 -7 -74zM328 1401q164 123 293 123q54 0 118 -23q105 -45 138 -45q76 0 182 80 l94 -139q-70 -50 -135 -84q-74 -39 -139 -39q-57 0 -91 12q-20 4 -71 23q-90 34 -133 34q-61 0 -164 -81z" />
<glyph unicode="&#xe4;" d="M82 397q0 58 8 105q37 234 201 385q164 153 414 153q69 0 155 -6q64 -12 144 -12l26 2h74l-133 -838v-8q0 -10 6 -16q10 -10 22 -10q18 0 33 18q16 21 25 27l135 -99q-98 -116 -217 -116q-60 0 -111 28q-49 28 -67 82q-128 -110 -316 -110q-220 0 -327 155 q-72 109 -72 260zM272 438q0 -104 37 -176q57 -115 199 -115q111 0 201 66q92 68 110 180l74 467q-203 14 -246 14q-65 0 -129 -28q-61 -27 -112 -78q-45 -45 -80.5 -113t-46.5 -143q-7 -44 -7 -74zM377 1397q0 53 42 94t95 41q44 0 72 -29t28 -71q0 -55 -42 -94.5 t-95 -39.5q-43 0 -71.5 28t-28.5 71zM868 1397q0 53 42.5 94t95.5 41q44 0 72 -29t28 -71q0 -55 -42 -94.5t-95 -39.5q-43 0 -72 28t-29 71z" />
<glyph unicode="&#xe5;" d="M82 397q0 58 8 105q37 234 201 385q164 153 414 153q69 0 155 -6q64 -12 144 -12l26 2h74l-133 -838v-8q0 -10 6 -16q10 -10 22 -10q18 0 33 18q16 21 25 27l135 -99q-98 -116 -217 -116q-60 0 -111 28q-49 28 -67 82q-128 -110 -316 -110q-220 0 -327 155 q-72 109 -72 260zM272 438q0 -104 37 -176q57 -115 199 -115q111 0 201 66q92 68 110 180l74 467q-203 14 -246 14q-65 0 -129 -28q-61 -27 -112 -78q-45 -45 -80.5 -113t-46.5 -143q-7 -44 -7 -74zM494 1335q0 36 4 56q17 109 90 176q78 69 190 69q110 0 164 -69 q45 -54 45 -131q0 -133 -98 -224q-78 -69 -187 -69q-114 0 -167 65q-41 48 -41 127zM668 1360q0 -57 55 -57q41 0 65.5 30.5t24.5 81.5q0 60 -59 60q-86 0 -86 -115z" />
<glyph unicode="&#xe6;" horiz-adv-x="1744" d="M51 236q0 17 4 49q27 173 197 254q132 63 321 63h164q15 102 15 152q0 26 -2 34q-21 86 -154 86q-143 0 -324 -118l-73 135q207 149 432 149q229 0 284 -163q153 163 369 163q160 0 264 -79q94 -73 94 -195q0 -17 -4 -53q-29 -176 -204 -262q-136 -68 -336 -68h-201 q6 -127 72 -182q66 -54 184 -54q94 0 186 31q82 28 172 72l68 -135q-236 -133 -449 -133q-276 0 -364 180q-125 -180 -387 -180q-166 0 -250 73q-78 68 -78 181zM242 254q0 -64 34 -80q40 -27 115 -27q57 0 109 15q46 11 92 41q94 63 108 170l11 65h-164q-117 0 -172 -18 q-133 -42 -133 -166zM913 549h211q61 0 97.5 3t49.5 6.5t40 12.5q58 21 94 54q35 35 43 86q4 24 4 34q0 20 -8 48q-20 33 -43 51q-22 14 -68 26q-41 9 -82 9q-51 0 -116 -29q-57 -31 -101 -78q-94 -97 -121 -223z" />
<glyph unicode="&#xe7;" horiz-adv-x="1118" d="M80 381q0 50 10 115q36 239 191 391q80 78 178.5 120t202.5 42q79 0 150 -24t118 -67q82 -76 82 -204q0 -41 -4 -64h-189q4 32 4 45q0 69 -41 107q-45 45 -145 45q-84 0 -145 -37q-62 -41 -105 -96q-90 -117 -113 -265q-6 -44 -6 -81q0 -99 47 -164q67 -88 220 -88 q91 0 180 30q82 29 170 72l69 -135q-236 -135 -462 -135q-227 0 -336 141q-76 100 -76 252zM332 -283l88 269h184l-37 -109q68 -21 95 -80q16 -36 16 -88q0 -25 -2 -39q-9 -58 -41 -108q-25 -42 -72 -80q-42 -30 -84.5 -46t-65 -18t-57.5 -2l29 181q35 0 70 14q32 14 41 57 v10q0 24 -11 31q-16 8 -47 8h-106z" />
<glyph unicode="&#xe8;" horiz-adv-x="1118" d="M78 373q0 47 10 112q38 241 191 394q164 161 380 161q157 0 261 -79q96 -74 96 -197q0 -17 -4 -49q-29 -180 -207 -266q-135 -66 -334 -66h-201q3 -126 72 -182q63 -54 188 -54q92 0 183 31q58 19 172 72l67 -135q-236 -135 -463 -135q-224 0 -333 141q-78 102 -78 252z M287 549h211q127 0 184 20q45 15 96 56q36 33 45 90q2 10 2 26q0 25 -10 52q-11 30 -43 49q-26 19 -65 28q-46 9 -82 9q-63 0 -117 -29q-48 -26 -100 -78q-93 -97 -121 -223zM348 1434l144 161l327 -299l-100 -127z" />
<glyph unicode="&#xe9;" horiz-adv-x="1118" d="M78 373q0 47 10 112q38 241 191 394q164 161 380 161q157 0 261 -79q96 -74 96 -197q0 -17 -4 -49q-29 -180 -207 -266q-135 -66 -334 -66h-201q3 -126 72 -182q63 -54 188 -54q92 0 183 31q58 19 172 72l67 -135q-236 -135 -463 -135q-224 0 -333 141q-78 102 -78 252z M287 549h211q127 0 184 20q45 15 96 56q36 33 45 90q2 10 2 26q0 25 -10 52q-11 30 -43 49q-26 19 -65 28q-46 9 -82 9q-63 0 -117 -29q-48 -26 -100 -78q-93 -97 -121 -223zM600 1296l426 299l92 -161l-454 -265z" />
<glyph unicode="&#xea;" horiz-adv-x="1118" d="M78 373q0 47 10 112q38 241 191 394q164 161 380 161q157 0 261 -79q96 -74 96 -197q0 -17 -4 -49q-29 -180 -207 -266q-135 -66 -334 -66h-201q3 -126 72 -182q63 -54 188 -54q92 0 183 31q58 19 172 72l67 -135q-236 -135 -463 -135q-224 0 -333 141q-78 102 -78 252z M287 549h211q127 0 184 20q45 15 96 56q36 33 45 90q2 10 2 26q0 25 -10 52q-11 30 -43 49q-26 19 -65 28q-46 9 -82 9q-63 0 -117 -29q-48 -26 -100 -78q-93 -97 -121 -223zM319 1262l371 362h133l260 -362h-235l-123 163l-174 -163h-232z" />
<glyph unicode="&#xeb;" horiz-adv-x="1118" d="M78 373q0 47 10 112q38 241 191 394q164 161 380 161q157 0 261 -79q96 -74 96 -197q0 -17 -4 -49q-29 -180 -207 -266q-135 -66 -334 -66h-201q3 -126 72 -182q63 -54 188 -54q92 0 183 31q58 19 172 72l67 -135q-236 -135 -463 -135q-224 0 -333 141q-78 102 -78 252z M287 549h211q127 0 184 20q45 15 96 56q36 33 45 90q2 10 2 26q0 25 -10 52q-11 30 -43 49q-26 19 -65 28q-46 9 -82 9q-63 0 -117 -29q-48 -26 -100 -78q-93 -97 -121 -223zM358 1397q0 53 42.5 94t95.5 41q44 0 72 -29t28 -71q0 -55 -42 -94.5t-95 -39.5q-43 0 -72 28 t-29 71zM850 1397q0 53 42 94t95 41q44 0 72 -29t28 -71q0 -55 -42 -94.5t-95 -39.5q-43 0 -71.5 28t-28.5 71z" />
<glyph unicode="&#xec;" horiz-adv-x="534" d="M-41 1417l143 162l328 -299l-100 -127zM35 131q0 11 4 39l135 854h184l-135 -854v-8q0 -11 6 -17q7 -10 23 -10q12 0 29 17l24 24l141 -94q-109 -121 -225 -121q-90 0 -143 59q-43 46 -43 111z" />
<glyph unicode="&#xed;" horiz-adv-x="534" d="M35 131q0 11 4 39l135 854h184l-135 -854v-8q0 -11 6 -17q7 -10 23 -10q12 0 29 17l24 24l141 -94q-109 -121 -225 -121q-90 0 -143 59q-43 46 -43 111zM211 1280l426 299l92 -162l-455 -264z" />
<glyph unicode="&#xee;" horiz-adv-x="534" d="M-70 1245l371 363h133l260 -363h-235l-123 164l-174 -164h-232zM35 131q0 11 4 39l135 854h184l-135 -854v-8q0 -11 6 -17q7 -10 23 -10q12 0 29 17l24 24l141 -94q-109 -121 -225 -121q-90 0 -143 59q-43 46 -43 111z" />
<glyph unicode="&#xef;" horiz-adv-x="534" d="M-31 1380q0 54 42 95t95 41q44 0 72.5 -29.5t28.5 -71.5q0 -54 -41.5 -93.5t-95.5 -39.5q-43 0 -72 28t-29 70zM35 131q0 11 4 39l135 854h184l-135 -854v-8q0 -11 6 -17q7 -10 23 -10q12 0 29 17l24 24l141 -94q-109 -121 -225 -121q-90 0 -143 59q-43 46 -43 111z M461 1380q0 54 42 95t95 41q43 0 71.5 -29.5t28.5 -71.5q0 -54 -41.5 -93.5t-95.5 -39.5q-43 0 -71.5 27.5t-28.5 70.5z" />
<glyph unicode="&#xf0;" horiz-adv-x="1226" d="M86 416q0 53 8 100q37 224 197 375q156 147 377 168l-19 164l191 57l-49 205l198 55l45 -203l211 60l23 -174l-199 -58l31 -151q7 -45 28 -156q23 -131 23 -217q0 -64 -8 -111q-21 -140 -70 -233q-49 -98 -125 -168q-159 -147 -393 -147q-242 0 -367 149 q-102 117 -102 285zM279 442q0 -111 59 -188q79 -104 244 -104q146 0 249 100q63 62 83 109t34 137q8 47 8 108q0 128 -32 262q-131 25 -219 25q-89 0 -160 -27q-69 -27 -123 -76q-114 -105 -137 -266q-6 -44 -6 -80zM717 1063h10q75 0 160 -14l-10 59z" />
<glyph unicode="&#xf1;" horiz-adv-x="1349" d="M109 0l112 709q6 34 6 61q0 26 -8 66q-11 47 -59 102l133 106q87 -69 108 -147q79 73 165.5 108t199.5 35q121 0 204 -41t111 -125q11 -34 11 -81q0 -37 -5 -66l-88 -547q0 -14 7 -24q11 -11 28 -11q23 0 53 41l136 -94q-99 -117 -222 -117q-72 0 -119 33.5t-61 85.5 q-8 24 -8 58q0 20 2 28l80 496q6 35 6 59q0 61 -31 92q-43 50 -141 50q-90 0 -178 -52q-65 -39 -145 -123l-113 -702h-184zM399 1401q164 123 293 123q55 0 119 -23q69 -30 93 -37.5t44 -7.5q76 0 182 80l95 -139q-70 -50 -135 -84q-74 -39 -140 -39q-56 0 -90 12 q-22 5 -72 23q-90 34 -133 34q-60 0 -163 -81z" />
<glyph unicode="&#xf2;" horiz-adv-x="1284" d="M84 412q0 52 8 96q38 241 217 387q80 68 187 106.5t227 38.5q231 0 364 -145q103 -118 103 -285q0 -52 -8 -96q-38 -236 -211 -389q-156 -141 -416 -141q-49 0 -87.5 3.5t-92.5 16t-103 42t-88 75.5q-100 115 -100 291zM274 434q0 -112 62 -186q81 -101 237 -101 q86 0 162.5 29t124.5 72q22 21 45 49.5t52.5 87.5t39.5 121q0 6 2 20t2 21q5 147 -61 231q-79 96 -246 96q-166 0 -276 -98q-113 -101 -137 -266q-7 -47 -7 -76zM416 1434l143 161l328 -299l-101 -127z" />
<glyph unicode="&#xf3;" horiz-adv-x="1284" d="M84 412q0 52 8 96q38 241 217 387q80 68 187 106.5t227 38.5q231 0 364 -145q103 -118 103 -285q0 -52 -8 -96q-38 -236 -211 -389q-156 -141 -416 -141q-49 0 -87.5 3.5t-92.5 16t-103 42t-88 75.5q-100 115 -100 291zM274 434q0 -112 62 -186q81 -101 237 -101 q86 0 162.5 29t124.5 72q22 21 45 49.5t52.5 87.5t39.5 121q0 6 2 20t2 21q5 147 -61 231q-79 96 -246 96q-166 0 -276 -98q-113 -101 -137 -266q-7 -47 -7 -76zM668 1296l426 299l92 -161l-455 -265z" />
<glyph unicode="&#xf4;" horiz-adv-x="1284" d="M84 412q0 52 8 96q38 241 217 387q80 68 187 106.5t227 38.5q231 0 364 -145q103 -118 103 -285q0 -52 -8 -96q-38 -236 -211 -389q-156 -141 -416 -141q-49 0 -87.5 3.5t-92.5 16t-103 42t-88 75.5q-100 115 -100 291zM274 434q0 -112 62 -186q81 -101 237 -101 q86 0 162.5 29t124.5 72q22 21 45 49.5t52.5 87.5t39.5 121q0 6 2 20t2 21q5 147 -61 231q-79 96 -246 96q-166 0 -276 -98q-113 -101 -137 -266q-7 -47 -7 -76zM387 1262l371 362h133l260 -362h-236l-122 163l-175 -163h-231z" />
<glyph unicode="&#xf5;" horiz-adv-x="1284" d="M84 412q0 52 8 96q38 241 217 387q80 68 187 106.5t227 38.5q231 0 364 -145q103 -118 103 -285q0 -52 -8 -96q-38 -236 -211 -389q-156 -141 -416 -141q-49 0 -87.5 3.5t-92.5 16t-103 42t-88 75.5q-100 115 -100 291zM274 434q0 -112 62 -186q81 -101 237 -101 q86 0 162.5 29t124.5 72q22 21 45 49.5t52.5 87.5t39.5 121q0 6 2 20t2 21q5 147 -61 231q-79 96 -246 96q-166 0 -276 -98q-113 -101 -137 -266q-7 -47 -7 -76zM377 1401q164 123 293 123q54 0 118 -23q105 -45 138 -45q76 0 182 80l94 -139q-70 -50 -135 -84 q-74 -39 -139 -39q-56 0 -90 12q-22 5 -72 23q-90 34 -133 34q-61 0 -164 -81z" />
<glyph unicode="&#xf6;" horiz-adv-x="1284" d="M84 412q0 52 8 96q38 241 217 387q80 68 187 106.5t227 38.5q231 0 364 -145q103 -118 103 -285q0 -52 -8 -96q-38 -236 -211 -389q-156 -141 -416 -141q-49 0 -87.5 3.5t-92.5 16t-103 42t-88 75.5q-100 115 -100 291zM274 434q0 -112 62 -186q81 -101 237 -101 q86 0 162.5 29t124.5 72q22 21 45 49.5t52.5 87.5t39.5 121q0 6 2 20t2 21q5 147 -61 231q-79 96 -246 96q-166 0 -276 -98q-113 -101 -137 -266q-7 -47 -7 -76zM426 1397q0 53 42 94t95 41q44 0 72.5 -29t28.5 -71q0 -54 -42 -94t-96 -40q-43 0 -71.5 28t-28.5 71z M918 1397q0 53 42 94t95 41q44 0 72 -29t28 -71q0 -55 -42 -94.5t-95 -39.5q-43 0 -71.5 28t-28.5 71z" />
<glyph unicode="&#xf7;" horiz-adv-x="993" d="M106 549l17 104h762l-17 -104h-762zM350 295q6 39 37 67q35 27 72 27q44 0 65 -27q19 -22 19 -51q0 -3 -1 -9t-1 -9q-4 -28 -11.5 -40t-25.5 -28q-33 -26 -72 -26q-38 0 -63 28t-19 68zM449 907q7 45 36 68q29 26 72 26t66 -26q16 -22 16 -51q0 -3 -1 -9.5t-1 -9.5 q-4 -29 -11 -40.5t-26 -26.5q-30 -27 -72 -27q-37 0 -63 29q-22 28 -16 67z" />
<glyph unicode="&#xf8;" horiz-adv-x="1284" d="M82 403q0 33 8 99q39 245 219 393q177 147 412 147q119 0 219 -43l61 76l148 -94l-72 -78q113 -116 113 -291q0 -53 -8 -100q-38 -239 -217 -385q-178 -147 -410 -147q-117 0 -225 40l-60 -73l-149 92l69 76q-108 111 -108 288zM274 424q0 -101 39 -162l504 596 q-65 16 -102 16q-185 0 -295 -96q-113 -94 -139 -272q-7 -47 -7 -82zM455 162q67 -17 131 -17q75 0 149 29q66 27 123 76q72 63 115 156.5t43 181.5q0 105 -58 172z" />
<glyph unicode="&#xf9;" horiz-adv-x="1380" d="M156 911l123 144q170 -118 170 -248q0 -14 -3 -29l-69 -432q-6 -35 -6 -59q0 -57 28 -88q45 -52 144 -52q86 0 176 52q39 24 68.5 47.5t76.5 72.5l115 707h184l-135 -842v-8q0 -10 6 -16q7 -10 25 -10q12 0 31 16l24 27l139 -99q-105 -114 -225 -114q-68 0 -113 34 q-50 31 -69 95q-79 -63 -159.5 -93t-182.5 -30q-253 0 -311 166q-13 41 -13 81q0 41 4 64l78 481q6 40 -76 109zM387 1417l143 162l328 -299l-100 -127z" />
<glyph unicode="&#xfa;" horiz-adv-x="1380" d="M156 911l123 144q170 -118 170 -248q0 -14 -3 -29l-69 -432q-6 -35 -6 -59q0 -57 28 -88q45 -52 144 -52q86 0 176 52q39 24 68.5 47.5t76.5 72.5l115 707h184l-135 -842v-8q0 -10 6 -16q7 -10 25 -10q12 0 31 16l24 27l139 -99q-105 -114 -225 -114q-68 0 -113 34 q-50 31 -69 95q-79 -63 -159.5 -93t-182.5 -30q-253 0 -311 166q-13 41 -13 81q0 41 4 64l78 481q6 40 -76 109zM639 1280l426 299l92 -162l-455 -264z" />
<glyph unicode="&#xfb;" horiz-adv-x="1380" d="M156 911l123 144q170 -118 170 -248q0 -14 -3 -29l-69 -432q-6 -35 -6 -59q0 -57 28 -88q45 -52 144 -52q86 0 176 52q39 24 68.5 47.5t76.5 72.5l115 707h184l-135 -842v-8q0 -10 6 -16q7 -10 25 -10q12 0 31 16l24 27l139 -99q-105 -114 -225 -114q-68 0 -113 34 q-50 31 -69 95q-79 -63 -159.5 -93t-182.5 -30q-253 0 -311 166q-13 41 -13 81q0 41 4 64l78 481q6 40 -76 109zM358 1245l371 363h133l260 -363h-235l-123 164l-174 -164h-232z" />
<glyph unicode="&#xfc;" horiz-adv-x="1380" d="M156 911l123 144q170 -118 170 -248q0 -14 -3 -29l-69 -432q-6 -35 -6 -59q0 -57 28 -88q45 -52 144 -52q86 0 176 52q39 24 68.5 47.5t76.5 72.5l115 707h184l-135 -842v-8q0 -10 6 -16q7 -10 25 -10q12 0 31 16l24 27l139 -99q-105 -114 -225 -114q-68 0 -113 34 q-50 31 -69 95q-79 -63 -159.5 -93t-182.5 -30q-253 0 -311 166q-13 41 -13 81q0 41 4 64l78 481q6 40 -76 109zM397 1380q0 53 42.5 94.5t95.5 41.5q43 0 71.5 -29.5t28.5 -71.5q0 -54 -41.5 -93.5t-95.5 -39.5q-43 0 -72 28t-29 70zM889 1380q0 54 42 95t95 41 q43 0 71.5 -29.5t28.5 -71.5q0 -54 -41.5 -93.5t-95.5 -39.5q-43 0 -71.5 27.5t-28.5 70.5z" />
<glyph unicode="&#xfd;" horiz-adv-x="1167" d="M156 907l123 148q73 -57 114 -109q53 -67 53 -147q0 -19 -2 -27l-69 -440q-6 -34 -6 -62q0 -59 26 -92q38 -47 131 -47q77 0 138 23q50 18 90 53q10 7 53 43q16 13 29 29q20 23 32 67l111 678h184l-121 -745l-77 -496q-27 -172 -136 -266q-111 -99 -268 -99 q-150 0 -227 103q-55 76 -55 180q0 74 27.5 148.5t74.5 125.5q-114 26 -166 105q-37 55 -37 137q0 41 4 64l78 491q6 43 -74 111zM461 -272q0 -48 20 -84q32 -54 107 -54t131 50q51 54 63 135l43 276q-86 -53 -149 -78q-74 -30 -111 -57q-104 -66 -104 -188zM664 1280 l426 299l92 -162l-455 -264z" />
<glyph unicode="&#xfe;" horiz-adv-x="1120" d="M-72 -508l316 1995h184q-44 -283 -90 -524q134 96 295 96q221 0 328 -164q67 -105 67 -260q0 -63 -8 -115q-41 -241 -199 -393q-166 -160 -424 -160q-87 0 -207 13l-77 -488h-185zM217 150q120 -13 199 -13q107 0 174 31q69 29 117 80q98 103 122 262q7 54 7 88 q0 96 -33 166q-20 51 -72 88q-51 35 -119 35q-42 0 -90 -10q-40 -12 -78 -33q-97 -50 -137 -150q-8 -24 -8 -28z" />
<glyph unicode="&#xff;" horiz-adv-x="1167" d="M156 907l123 148q73 -57 114 -109q53 -67 53 -147q0 -19 -2 -27l-69 -440q-6 -34 -6 -62q0 -59 26 -92q38 -47 131 -47q77 0 138 23q50 18 90 53q10 7 53 43q16 13 29 29q20 23 32 67l111 678h184l-121 -745l-77 -496q-27 -172 -136 -266q-111 -99 -268 -99 q-150 0 -227 103q-55 76 -55 180q0 74 27.5 148.5t74.5 125.5q-114 26 -166 105q-37 55 -37 137q0 41 4 64l78 491q6 43 -74 111zM422 1380q0 54 42 95t95 41q43 0 71.5 -29.5t28.5 -71.5q0 -54 -41.5 -93.5t-95.5 -39.5q-43 0 -71.5 27.5t-28.5 70.5zM461 -272 q0 -48 20 -84q32 -54 107 -54t131 50q51 54 63 135l43 276q-86 -53 -149 -78q-74 -30 -111 -57q-104 -66 -104 -188zM913 1380q0 53 42.5 94.5t95.5 41.5q43 0 71.5 -29.5t28.5 -71.5q0 -54 -41.5 -93.5t-95.5 -39.5q-43 0 -72 28t-29 70z" />
<glyph unicode="&#x152;" horiz-adv-x="2473" d="M102 573q0 62 11 127q24 163 102 293q67 111 197 219q122 101 250 150q138 53 290 53q315 0 496 -235l29 217q8 2 22 2h973l-29 -178h-792l-64 -396h547l-29 -178h-546l-74 -471h833l-28 -178h-1030l34 211q-121 -113 -272 -172q-142 -57 -303 -57q-137 0 -264 55 q-120 53 -205 147q-91 97 -125 221q-23 86 -23 170zM287 602q0 -180 106 -301q133 -151 352 -151q161 0 312 88q192 114 278 313q20 52 25 80l20 131q4 28 4 47q0 42 -16 104q-21 83 -65 142q-43 61 -99 102q-118 86 -282 86q-108 0 -214.5 -40.5t-191.5 -110.5 q-182 -151 -221 -394q-8 -66 -8 -96z" />
<glyph unicode="&#x153;" horiz-adv-x="2007" d="M84 408q0 51 8 98q39 242 215 387q180 147 412 147q140 0 246 -53q107 -56 161 -170q158 223 416 223q164 0 268 -79q95 -74 95 -199q0 -17 -4 -49q-30 -178 -207 -264q-135 -66 -334 -66h-199q3 -124 70 -182q61 -54 186 -54q94 0 185 31q58 19 172 72l67 -135 q-235 -133 -448 -133q-144 0 -241 51.5t-136 154.5q-84 -103 -211 -157q-115 -49 -254 -49q-116 0 -207 36q-93 37 -158 105q-102 108 -102 285zM274 434q0 -114 60 -186q82 -101 244 -101t282 101q103 89 131 246q8 47 8 98q0 114 -57 186q-36 43 -100.5 69.5t-149.5 26.5 q-161 0 -274 -98q-112 -100 -137 -264q-7 -47 -7 -78zM1178 549h208q127 0 185 20q48 17 96 56q36 33 45 90q2 10 2 26q0 25 -10 52q-11 30 -43 49q-25 19 -66 28q-46 9 -82 9q-62 0 -116 -29q-54 -28 -101 -78q-91 -94 -118 -223z" />
<glyph unicode="&#x178;" horiz-adv-x="1355" d="M139 1194q25 98 92 162q71 65 170 65q130 0 179 -110l206 -492l435 584h225l-594 -795l-92 -608h-209l104 604l-258 619q-6 16 -28 16q-20 0 -29 -22l-14 -41zM563 1757q0 53 42 94t95 41q44 0 72.5 -29t28.5 -71q0 -54 -41.5 -93.5t-95.5 -39.5q-43 0 -72 28t-29 70z M1055 1757q0 53 42 94t95 41q44 0 72 -29t28 -71q0 -54 -41.5 -93.5t-95.5 -39.5q-43 0 -71.5 27.5t-28.5 70.5z" />
<glyph unicode="&#x2c6;" horiz-adv-x="819" d="M143 1245l371 363h133l260 -363h-235l-123 164l-174 -164h-232z" />
<glyph unicode="&#x2dc;" horiz-adv-x="987" d="M227 1384q164 123 293 123q58 0 119 -22q69 -30 93 -37.5t44 -7.5q76 0 182 80l95 -140q-70 -50 -135 -84q-74 -39 -140 -39q-53 0 -90 13q-30 7 -72 22q-93 35 -133 35q-60 0 -164 -82z" />
<glyph unicode="&#x2000;" horiz-adv-x="1000" />
<glyph unicode="&#x2001;" horiz-adv-x="2001" />
<glyph unicode="&#x2002;" horiz-adv-x="1000" />
<glyph unicode="&#x2003;" horiz-adv-x="2001" />
<glyph unicode="&#x2004;" horiz-adv-x="667" />
<glyph unicode="&#x2005;" horiz-adv-x="500" />
<glyph unicode="&#x2006;" horiz-adv-x="333" />
<glyph unicode="&#x2007;" horiz-adv-x="333" />
<glyph unicode="&#x2008;" horiz-adv-x="250" />
<glyph unicode="&#x2009;" horiz-adv-x="400" />
<glyph unicode="&#x200a;" horiz-adv-x="111" />
<glyph unicode="&#x2010;" horiz-adv-x="882" d="M90 532l29 189h680l-29 -189h-680z" />
<glyph unicode="&#x2011;" horiz-adv-x="882" d="M90 532l29 189h680l-29 -189h-680z" />
<glyph unicode="&#x2012;" horiz-adv-x="882" d="M90 532l29 189h680l-29 -189h-680z" />
<glyph unicode="&#x2013;" horiz-adv-x="1101" d="M68 532l28 189h946l-28 -189h-946z" />
<glyph unicode="&#x2014;" horiz-adv-x="1429" d="M68 532l28 189h1274l-29 -189h-1273z" />
<glyph unicode="&#x2018;" horiz-adv-x="419" d="M152 1096q0 13 4 37q38 230 239 358l99 -115q-112 -95 -136 -243q-9 -54 -34 -86q-27 -37 -88 -37q-59 0 -74 37q-10 23 -10 49z" />
<glyph unicode="&#x2019;" horiz-adv-x="419" d="M125 1092q113 98 137 243q5 44 33 88q27 35 86 35q61 0 76 -35q10 -20 10 -51q0 -25 -2 -37q-37 -226 -242 -358z" />
<glyph unicode="&#x201a;" horiz-adv-x="419" d="M-74 -156q116 101 137 242q9 52 35 88q27 35 86 35q61 0 76 -35q10 -23 10 -51q0 -13 -4 -37q-38 -225 -241 -356z" />
<glyph unicode="&#x201c;" horiz-adv-x="688" d="M156 1096q0 13 4 37q38 230 239 358l99 -115q-112 -95 -136 -243q-9 -54 -34 -86q-27 -37 -88 -37q-59 0 -74 37q-10 23 -10 49zM412 1096q0 13 4 37q38 230 239 358l99 -115q-112 -95 -136 -243q-9 -54 -34 -86q-27 -37 -88 -37q-59 0 -74 37q-10 23 -10 49z" />
<glyph unicode="&#x201d;" horiz-adv-x="688" d="M133 1092q113 98 137 243q5 44 33 88q27 35 86 35q61 0 76 -35q10 -20 10 -51q0 -25 -2 -37q-37 -226 -242 -358zM389 1092q113 98 137 243q5 44 33 88q27 35 86 35q61 0 76 -35q10 -20 10 -51q0 -25 -2 -37q-37 -226 -242 -358z" />
<glyph unicode="&#x201e;" horiz-adv-x="688" d="M-66 -156q118 102 138 242q9 54 34 88q27 35 87 35t75 -35q11 -26 11 -51q0 -7 -5 -37q-38 -225 -241 -356zM190 -156q118 102 138 242q9 54 34 88q27 35 87 35t75 -35q11 -26 11 -51q0 -7 -5 -37q-38 -225 -241 -356z" />
<glyph unicode="&#x2022;" horiz-adv-x="565" d="M78 610q0 23 2 33q16 89 86 148q66 63 153 63q61 0 86.5 -13t55.5 -48q41 -47 41 -111q0 -11 -4 -39q-12 -87 -84 -147t-158 -60q-84 0 -137 62q-41 47 -41 112z" />
<glyph unicode="&#x2026;" horiz-adv-x="1347" d="M33 86q0 55 44 97t101 42q47 0 78 -29.5t31 -72.5q0 -57 -44.5 -99t-101.5 -42q-47 0 -77.5 29.5t-30.5 74.5zM483 86q0 55 44.5 97t101.5 42q47 0 77.5 -29.5t30.5 -72.5q0 -57 -44 -99t-101 -42q-47 0 -78 30t-31 74zM913 86q0 55 44.5 97t101.5 42q47 0 77.5 -29.5 t30.5 -72.5q0 -57 -44 -99t-101 -42q-47 0 -78 30t-31 74z" />
<glyph unicode="&#x202f;" horiz-adv-x="400" />
<glyph unicode="&#x2039;" horiz-adv-x="765" d="M43 514q9 62 96 125l512 401l103 -137l-502 -389l379 -389l-146 -135l-387 399q-64 64 -55 125z" />
<glyph unicode="&#x203a;" horiz-adv-x="765" d="M-18 125l501 389l-379 389l148 137l385 -401q5 -5 45 -55q14 -20 14 -49q0 -13 -2 -19q-9 -62 -98 -127l-510 -399z" />
<glyph unicode="&#x205f;" horiz-adv-x="500" />
<glyph unicode="&#x20ac;" horiz-adv-x="1298" d="M51 440l68 170h125l12 86h-162l64 168h133q49 144 98.5 218.5t136.5 144.5q165 133 420 133q45 0 258 -14l-26 -175q-210 13 -260 13q-172 0 -279 -84q-104 -84 -150 -236h508l-57 -170h-487l-13 -84h480l-56 -170h-434q6 -74 27 -121.5t61 -87.5q75 -75 236 -75 q89 0 168 28q74 28 155 74l66 -143q-111 -74 -180 -97q-112 -36 -236 -36q-241 0 -367 120q-64 62 -96 142.5t-33 195.5h-180z" />
<glyph unicode="&#x2122;" horiz-adv-x="1257" d="M158 1151l20 121h643l86 -379l215 379h164l-94 -594h-137l51 319l-170 -299h-121l-63 289l-50 -309h-137l74 473h-170l-74 -471h-139l74 471h-172z" />
<glyph unicode="&#xe000;" horiz-adv-x="1024" d="M0 0v1024h1024v-1024h-1024z" />
<glyph unicode="&#xfb03;" horiz-adv-x="1433" d="M-53 -530l231 1460q56 347 252 463q79 47 180 47q145 0 217 -68q89 66 217 66q172 0 267 -129l-162 -133q-21 41 -51 65q-28 25 -80 25q-58 0 -100 -33q-38 -28 -66 -86q-36 -77 -57 -207h448l-121 -766l-2 -8q0 -8 8 -16q8 -11 19 -11q13 0 25 8.5t34 34.5l140 -98 q-109 -121 -224 -121q-92 0 -145 60q-43 50 -43 112q0 11 4 39l94 592h-264l-207 -1296h-184l207 1296h-246l-207 -1296h-184zM365 938h245q13 80 27 132.5t23 73.5t34 70q-41 52 -104 52q-62 0 -103 -33q-33 -26 -65 -84q-35 -66 -57 -211z" />
<glyph unicode="&#xfb04;" horiz-adv-x="1593" d="M-80 -530l232 1460q58 351 251 463q77 45 185 45q171 0 262 -125q110 121 287 121q143 0 221 -78q67 -67 67 -166q0 -37 -4 -55l-151 -959l-2 -8q0 -8 8 -16q8 -11 18 -11q13 0 25.5 9t34.5 34l139 -98q-109 -121 -223 -121q-89 0 -146 60q-41 48 -41 114q0 25 2 37 l152 957q2 8 2 22q0 50 -31 74q-13 13 -42 23t-62 10q-68 0 -113 -45q-46 -49 -73 -142q-17 -53 -46 -225l-47 -303h303l-28 -172h-303l-144 -910h-184l143 910h-364l-144 -905h-184zM276 547h365l61 397q18 108 38 174t36.5 95t54.5 79l-139 -116q-21 41 -51 65 q-32 25 -80 25q-60 0 -106 -37q-35 -33 -64 -92q-32 -71 -57 -222z" />
</font>
</defs>
</svg>
